<svg width="57" height="57" viewBox="0 0 57 57" fill="none" xmlns="http://www.w3.org/2000/svg">
<g clip-path="url(#clip0_335_53)">
<path d="M17.7772 21.4458C7.97477 21.4458 0 29.4206 0 39.223C0 49.0254 7.97477 57.0002 17.7772 57.0002C27.5797 57.0002 35.5544 49.0254 35.5544 39.223C35.5544 29.4206 27.5797 21.4458 17.7772 21.4458ZM17.7772 55.3071C8.90837 55.3071 1.69308 48.0919 1.69308 39.223C1.69308 30.3542 8.90837 23.1389 17.7772 23.1389C26.6461 23.1389 33.8613 30.3542 33.8613 39.223C33.8613 48.0919 26.6461 55.3071 17.7772 55.3071Z" fill="black"/>
<path d="M32.7207 4.26999C29.5057 1.51651 25.401 0 21.163 0C11.3605 0 3.38574 7.97477 3.38574 17.7772C3.38574 19.9825 3.78541 22.1347 4.5735 24.1741L6.15291 23.5637C5.44008 21.7199 5.07882 19.7731 5.07882 17.7772C5.07882 8.90837 12.2941 1.69308 21.163 1.69308C29.0726 1.69308 35.7468 7.3481 37.0327 15.1395L38.703 14.8639C38.0252 10.7556 35.9006 6.9933 32.7207 4.26999Z" fill="#20221E"/>
<path d="M9.9887 40.4077C8.27726 40.4077 6.88477 41.8002 6.88477 43.5117C6.88477 45.2231 8.27726 46.6156 9.9887 46.6156C11.7002 46.6156 13.0926 45.2231 13.0926 43.5117C13.0926 41.8002 11.7002 40.4077 9.9887 40.4077ZM9.9887 44.9226C9.21063 44.9226 8.57784 44.2897 8.57784 43.5118C8.57784 42.7337 9.21074 42.1009 9.9887 42.1009C10.7667 42.1009 11.3996 42.7338 11.3996 43.5118C11.3996 44.2897 10.7667 44.9226 9.9887 44.9226Z" fill="black"/>
<path d="M22.1791 28.2178C20.4677 28.2178 19.0752 29.6103 19.0752 31.3217C19.0752 33.0332 20.4677 34.4257 22.1791 34.4257C23.8906 34.4257 25.2831 33.0332 25.2831 31.3217C25.2831 29.6103 23.8906 28.2178 22.1791 28.2178ZM22.1791 32.7327C21.4011 32.7327 20.7683 32.0998 20.7683 31.3218C20.7683 30.5438 21.4012 29.911 22.1791 29.911C22.9572 29.911 23.59 30.5439 23.59 31.3218C23.59 32.0998 22.9571 32.7327 22.1791 32.7327Z" fill="black"/>
<path d="M23.1948 13.8833C21.4833 13.8833 20.0908 15.2758 20.0908 16.9872C20.0908 18.6987 21.4833 20.0912 23.1948 20.0912C24.9062 20.0912 26.2987 18.6987 26.2987 16.9872C26.2987 15.2758 24.9062 13.8833 23.1948 13.8833ZM23.1948 18.3981C22.4167 18.3981 21.7839 17.7652 21.7839 16.9872C21.7839 16.2092 22.4168 15.5764 23.1948 15.5764C23.9728 15.5764 24.6056 16.2093 24.6056 16.9872C24.6056 17.7653 23.9727 18.3981 23.1948 18.3981Z" fill="black"/>
<path d="M26.2426 5.98242C24.5312 5.98242 23.1387 7.37491 23.1387 9.08636C23.1387 10.7978 24.5312 12.1903 26.2426 12.1903C27.9541 12.1903 29.3466 10.7978 29.3466 9.08636C29.3466 7.37491 27.9541 5.98242 26.2426 5.98242ZM26.2426 10.4972C25.4645 10.4972 24.8318 9.86432 24.8318 9.08636C24.8318 8.3084 25.4647 7.6755 26.2426 7.6755C27.0206 7.6755 27.6535 8.3084 27.6535 9.08636C27.6535 9.86432 27.0206 10.4972 26.2426 10.4972Z" fill="#F27021"/>
<path d="M15.1443 31.903L10.6693 31.4399L8.31641 35.3614L12.1308 38.3811L15.6318 35.6412L15.1443 31.903ZM12.1367 36.2264L10.5334 34.957L11.5666 33.2348L13.6382 33.449L13.8278 34.9028L12.1367 36.2264Z" fill="black"/>
<path d="M50.4724 33.0319L45.9975 32.5688L43.6445 36.4903L47.459 39.51L50.9599 36.7701L50.4724 33.0319ZM47.465 37.3553L45.8616 36.0859L46.8949 34.3637L48.9665 34.5779L49.1561 36.0317L47.465 37.3553Z" fill="black"/>
<path d="M26.2794 36.3696L22.0192 37.3979L21.2256 41.3666L25.6983 43.752L29.8333 39.9233L26.2794 36.3696ZM25.4319 41.6912L23.1324 40.4647L23.4673 38.7899L25.7536 38.2379L27.3919 39.8762L25.4319 41.6912Z" fill="black"/>
<path d="M42.5834 26.0771L38.3489 24.9468L35.7568 28.0552L38.5483 32.2865L44.0096 30.8964L42.5834 26.0771ZM39.2979 30.3485L37.8628 28.1732L38.9567 26.8614L41.2292 27.4679L41.8866 29.6897L39.2979 30.3485Z" fill="black"/>
<path d="M21.4632 46.7545C21.0501 45.9908 20.3232 45.4634 19.4691 45.3077C18.6149 45.1516 17.7486 45.3887 17.0924 45.9576C16.0295 46.8791 15.7964 48.4156 16.5379 49.6111L17.7112 51.5022L20.5348 51.8477L23.0281 49.6477L21.4632 46.7545ZM19.9851 50.0748L18.7222 49.9202L17.9766 48.7183C17.6759 48.2335 17.7705 47.6105 18.2016 47.2368C18.4676 47.0061 18.8188 46.91 19.1653 46.9733C19.5117 47.0364 19.8065 47.2503 19.974 47.56L20.8982 49.269L19.9851 50.0748Z" fill="black"/>
<path d="M40.8032 40.4399C39.0917 40.4399 37.6992 41.8324 37.6992 43.5439C37.6992 45.2553 39.0917 46.6478 40.8032 46.6478C42.5146 46.6478 43.9071 45.2553 43.9071 43.5439V40.4399H40.8032ZM42.214 43.544C42.214 44.3221 41.5811 44.9549 40.8032 44.9549C40.0251 44.9549 39.3923 44.322 39.3923 43.544C39.3923 42.7659 40.0252 42.1331 40.8032 42.1331H42.214V43.544Z" fill="black"/>
<path d="M13.1209 9.97998L9.10059 13.7231L9.54913 17.7606L14.1189 19.0459L17.7047 16.2876L17.8534 12.4182L13.1209 9.97998ZM16.0435 15.4294L13.76 17.186L11.1059 16.4396L10.8773 14.3821L13.4036 12.03L16.1205 13.4295L16.0435 15.4294Z" fill="#F27021"/>
<path d="M16.197 27.7661H14.5039V29.4592H16.197V27.7661Z" fill="black"/>
<path d="M7.05441 37.4731H5.36133V39.1662H7.05441V37.4731Z" fill="black"/>
<path d="M16.0837 40.1821H14.3906V41.8752H16.0837V40.1821Z" fill="black"/>
<path d="M19.4704 36.3447H17.7773V38.0378H19.4704V36.3447Z" fill="black"/>
<path d="M28.4997 32.7329H26.8066V34.426H28.4997V32.7329Z" fill="black"/>
<path d="M42.0446 33.8613H40.3516V35.5544H42.0446V33.8613Z" fill="black"/>
<path d="M39.7868 37.2476H38.0938V38.9406H39.7868V37.2476Z" fill="black"/>
<path d="M47.237 41.5366H45.5439V43.2297H47.237V41.5366Z" fill="black"/>
<path d="M47.4626 29.1206H45.7695V30.8137H47.4626V29.1206Z" fill="black"/>
<path d="M48.5915 17.8335H46.8984V19.5266H48.5915V17.8335Z" fill="black"/>
<path d="M51.9773 20.0908H50.2842V21.7839H51.9773V20.0908Z" fill="black"/>
<path d="M54.2351 23.4771H52.542V25.1701H54.2351V23.4771Z" fill="black"/>
<path d="M55.363 17.8335H53.6699V19.5266H55.363V17.8335Z" fill="black"/>
<path d="M51.9773 15.5762H50.2842V17.2693H51.9773V15.5762Z" fill="black"/>
<path d="M54.2351 12.1899H52.542V13.883H54.2351V12.1899Z" fill="black"/>
<path d="M34.4821 24.606H32.7891V26.299H34.4821V24.606Z" fill="black"/>
<path d="M30.8698 12.6416H29.1768V14.3347H30.8698V12.6416Z" fill="black"/>
<path d="M29.7419 16.0278H28.0488V17.7209H29.7419V16.0278Z" fill="black"/>
<path d="M21.2761 9.81982H19.583V11.5129H21.2761V9.81982Z" fill="black"/>
<path d="M17.1003 7.44971H15.4072V9.14279H17.1003V7.44971Z" fill="black"/>
<path d="M20.7116 5.64355H19.0186V7.33663H20.7116V5.64355Z" fill="#F27021"/>
<path d="M26.0173 45.7129H24.3242V47.406H26.0173V45.7129Z" fill="black"/>
<path d="M13.8269 48.7603H12.1338V50.4533H13.8269V48.7603Z" fill="black"/>
<path d="M19.4704 41.311H17.7773V43.0041H19.4704V41.311Z" fill="black"/>
<path d="M55.978 28.7583L55.7105 28.0059L54.9438 28.229C54.4544 28.3713 53.9499 28.4436 53.4444 28.4436C50.6984 28.4436 48.4069 26.3874 48.1143 23.6611L48.0289 22.8645L47.2287 22.906C47.1563 22.9098 47.084 22.9129 47.0107 22.9129C45.0502 22.9129 43.4552 21.3179 43.4552 19.3574C43.4552 19.0305 43.5011 18.7025 43.5916 18.3819L43.837 17.5128L42.954 17.3241C41.7325 17.063 40.4772 16.9307 39.2227 16.9307C34.7738 16.9307 30.5158 18.5832 27.2334 21.5836L28.3757 22.8332C31.3454 20.1187 35.1976 18.6236 39.2227 18.6236C40.0824 18.6236 40.9426 18.6923 41.7891 18.8281C41.7713 19.0042 41.7623 19.1807 41.7623 19.3573C41.7623 22.0964 43.8713 24.3521 46.5507 24.5858C47.2435 27.798 50.0855 30.1365 53.4445 30.1365C53.8375 30.1365 54.2296 30.1035 54.6174 30.0379C55.0751 31.5465 55.3069 33.114 55.3069 34.7079C55.3069 43.5767 48.0916 50.792 39.2228 50.792C37.4624 50.792 35.731 50.5091 34.0764 49.9515L33.5357 51.5559C35.3649 52.1725 37.2783 52.4851 39.2228 52.4851C49.0252 52.4851 57 44.5103 57 34.7079C56.9998 32.6678 56.656 30.666 55.978 28.7583Z" fill="black"/>
<path d="M4.20801 34.425L5.8039 34.9907C5.9798 34.4944 6.18931 34.0038 6.42667 33.5325L4.91438 32.771C4.64519 33.3055 4.40762 33.862 4.20801 34.425Z" fill="black"/>
<path d="M11.7581 26.1514C9.35462 27.262 7.30173 29.0145 5.82129 31.2189L7.22692 32.1629C8.53424 30.2161 10.3468 28.6687 12.4685 27.688L11.7581 26.1514Z" fill="black"/>
<path d="M27.8301 46.9711L29.1695 48.0065C29.5348 47.5339 29.8742 47.0333 30.1781 46.5188L28.7203 45.6577C28.4521 46.1122 28.1524 46.5539 27.8301 46.9711Z" fill="black"/>
<path d="M30.2409 41.6567C30.068 42.544 29.7984 43.4148 29.4395 44.2449L30.9935 44.9169C31.4007 43.975 31.7067 42.9873 31.9028 41.9806L30.2409 41.6567Z" fill="black"/>
<path d="M8.5009 18.7305L6.8125 18.855C6.89076 19.9153 7.08681 20.9649 7.39508 21.9747L9.01435 21.4801C8.74271 20.5907 8.56981 19.6654 8.5009 18.7305Z" fill="black"/>
<path d="M32.0234 8.3042L30.7471 9.41659C31.2969 10.0475 31.7853 10.7359 32.1989 11.4626L33.6705 10.6252C33.2013 9.80078 32.647 9.01982 32.0234 8.3042Z" fill="black"/>
<path d="M34.4593 12.2407L32.8945 12.8871C33.0955 13.3736 33.268 13.8787 33.4073 14.3882L35.0404 13.9419C34.8826 13.3645 34.6871 12.7921 34.4593 12.2407Z" fill="black"/>
<path d="M12.6473 6.18213C11.6778 6.89608 10.7984 7.73026 10.0342 8.66207L11.3431 9.73595C12.0183 8.91312 12.7948 8.17613 13.651 7.54568L12.6473 6.18213Z" fill="#F27021"/>
<path d="M32.626 21.9155L33.4028 23.4198C33.8713 23.1779 34.3596 22.9634 34.8544 22.7823L34.2723 21.1924C33.711 21.3979 33.1571 21.6413 32.626 21.9155Z" fill="black"/>
<path d="M39.2219 20.3169C38.1354 20.317 37.0499 20.4397 35.9961 20.6815L36.3747 22.3318C37.3049 22.1184 38.263 22.0101 39.2223 22.01C39.2884 22.01 39.3546 22.0105 39.4208 22.0115L39.4472 20.3187C39.3721 20.3175 39.2971 20.3169 39.2219 20.3169Z" fill="black"/>
<path d="M51.5186 37.8823C51.2602 38.8824 50.8781 39.8506 50.3828 40.76L51.8698 41.5697C52.4315 40.5383 52.8649 39.4401 53.1579 38.3057L51.5186 37.8823Z" fill="black"/>
<path d="M48.5342 43.3316L49.7759 44.4823C50.1826 44.0435 50.5652 43.5755 50.9135 43.0913L49.5387 42.103C49.2314 42.5306 48.8935 42.944 48.5342 43.3316Z" fill="black"/>
</g>
<defs>
<clipPath id="clip0_335_53">
<rect width="57" height="57" fill="white"/>
</clipPath>
</defs>
</svg>
