<svg width="135" height="36" viewBox="0 0 135 36" fill="none" xmlns="http://www.w3.org/2000/svg">
<g clip-path="url(#clip0_102_400)">
<path d="M111.87 22.78H122.29V19.79H111.87V22.78ZM118.62 30.57C118.45 30.77 118.04 30.87 117.41 30.87H115.94V33.86H118.4C119.66 33.86 120.6 33.53 121.22 32.87C121.84 32.21 122.14 31.21 122.14 29.86V27.08H118.87V29.31C118.87 29.95 118.78 30.37 118.61 30.57M122.29 22.27V13.31C122.29 11.96 121.98 10.96 121.37 10.3C120.76 9.64 119.81 9.31 118.55 9.31H115.95V12.3H117.56C118.19 12.3 118.59 12.39 118.77 12.58C118.94 12.77 119.03 13.2 119.03 13.87V22.27H122.3H122.29ZM114 12.58C114.19 12.4 114.58 12.3 115.18 12.3H116.65V9.31H114.19C112.93 9.31 111.99 9.64 111.37 10.3C110.75 10.96 110.45 11.96 110.45 13.31V29.86C110.45 31.21 110.76 32.21 111.37 32.87C111.98 33.53 112.92 33.86 114.19 33.86H116.32V30.87H115.18C114.58 30.87 114.19 30.77 114 30.57C113.81 30.37 113.72 29.95 113.72 29.31V13.87C113.72 13.2 113.81 12.77 114 12.58ZM104.3 0H101.03V33.86H104.3V0ZM94.8798 0H91.6098V33.86H94.8798V0ZM75.5098 22.78H85.9298V19.79H75.5098V22.78ZM82.2598 30.57C82.0898 30.77 81.6798 30.87 81.0498 30.87H79.5798V33.86H82.0398C83.2998 33.86 84.2398 33.53 84.8598 32.87C85.4698 32.21 85.7798 31.21 85.7798 29.86V27.08H82.5098V29.31C82.5098 29.95 82.4198 30.37 82.2498 30.57M85.9298 22.27V13.31C85.9298 11.96 85.6198 10.96 85.0098 10.3C84.3898 9.64 83.4498 9.31 82.1898 9.31H79.5898V12.3H81.1998C81.8298 12.3 82.2298 12.39 82.4098 12.58C82.5798 12.77 82.6698 13.2 82.6698 13.87V22.27H85.9398H85.9298ZM77.6398 12.58C77.8298 12.4 78.2198 12.3 78.8198 12.3H80.2898V9.31H77.8298C76.5698 9.31 75.6298 9.64 75.0098 10.3C74.3898 10.96 74.0898 11.96 74.0898 13.31V29.86C74.0898 31.21 74.3998 32.21 75.0098 32.87C75.6298 33.53 76.5598 33.86 77.8298 33.86H79.9598V30.87H78.8198C78.2198 30.87 77.8298 30.77 77.6398 30.57C77.4498 30.37 77.3598 29.95 77.3598 29.31V13.87C77.3598 13.2 77.4498 12.77 77.6398 12.58ZM69.3598 2.38H65.8598L62.1698 14.63L58.4798 2.38H54.9798L60.4698 17.77L54.4998 33.87H57.9998L62.1698 21.06L66.3398 33.87H69.8398L63.8698 17.77L69.3598 2.38ZM37.5898 2.38V29.86C37.5898 31.21 37.8998 32.21 38.5098 32.87C39.1298 33.53 40.0598 33.86 41.3298 33.86H43.7398V30.87H42.2698C41.6698 30.87 41.2798 30.77 41.0898 30.57C40.8998 30.37 40.8098 29.95 40.8098 29.31V2.38H37.5898ZM46.4198 30.57C46.2498 30.77 45.8398 30.87 45.2098 30.87H43.2698V33.86H46.1598C47.4198 33.86 48.3598 33.53 48.9798 32.87C49.5998 32.21 49.8998 31.21 49.8998 29.86V2.38H46.6798V29.31C46.6798 29.95 46.5898 30.37 46.4198 30.57Z" fill="white"/>
<path d="M131.43 29.05V12.3H134.7V9.31H131.43V5.31H128.16V9.31H126.08V12.3H128.16V29.86C128.16 31.21 128.47 32.21 129.08 32.87C129.69 33.53 130.63 33.86 131.9 33.86H134.69V30.62H132.89C132.29 30.62 131.9 30.52 131.71 30.32C131.52 30.12 131.43 29.7 131.43 29.05Z" fill="white"/>
<path d="M13.2566 3.29101L1.46913 15.0785C-0.483494 17.0311 -0.483494 20.1969 1.46913 22.1495L13.2566 33.937C15.2092 35.8896 18.375 35.8896 20.3277 33.937L32.1151 22.1495C34.0678 20.1969 34.0678 17.0311 32.1151 15.0785L20.3277 3.29101C18.375 1.33839 15.2092 1.33839 13.2566 3.29101Z" fill="white"/>
<path d="M16.7908 13.31L13.1608 8.21002L13.4408 14.32L7.29078 12.18L11.3708 16.97L5.05078 18.61L11.3708 20.25L7.29078 25.04L13.4408 22.9L13.1608 29.01L16.7908 23.91L20.4208 29.01L20.1408 22.9L26.2908 25.04L22.2108 20.25L28.5308 18.61L22.2108 16.97L26.2908 12.18L20.1408 14.32L20.4208 8.21002L16.7908 13.31Z" fill="#5389BB"/>
</g>
<defs>
<clipPath id="clip0_102_400">
<rect width="134.69" height="35.4" fill="white"/>
</clipPath>
</defs>
</svg>
