<svg width="110" height="41" viewBox="0 0 110 41" fill="none" xmlns="http://www.w3.org/2000/svg">
<rect y="20.2828" width="28.6842" height="28.6842" rx="5" transform="rotate(-45 0 20.2828)" fill="#5389BB"/>
<g clip-path="url(#clip0_221_3226)">
<path d="M20.2808 14.8627L16.3822 9.38274L16.6867 15.9541L10.0751 13.6566L14.4628 18.8064L7.66211 20.5673L14.4628 22.3328L10.0751 27.4825L16.6867 25.1851L16.3822 31.7564L20.2808 26.2719L24.1841 31.7564L23.8796 25.1851L30.4912 27.4825L26.1034 22.3328L32.9042 20.5673L26.1034 18.8064L30.4912 13.6566L23.8796 15.9541L24.1841 9.38274L20.2808 14.8627Z" fill="white"/>
</g>
<g clip-path="url(#clip1_221_3226)">
<mask id="mask0_221_3226" style="mask-type:luminance" maskUnits="userSpaceOnUse" x="39" y="3" width="71" height="35">
<path d="M110 3.59985H39V37.5999H110V3.59985Z" fill="white"/>
</mask>
<g mask="url(#mask0_221_3226)">
<path d="M92.9757 37.1492L96.6509 14.9044L100.37 37.1492H105.328L110 3.97029H104.954L102.226 25.4742L98.6754 4.05055H94.5018L91.0322 25.4742L88.2602 3.97029H83.1336L87.8865 37.1492H92.9695H92.9757ZM68.8003 32.4755C68.302 32.0371 67.9781 31.4382 67.8286 30.6727C67.6791 29.9071 67.6043 29.0736 67.6043 28.1722V12.8978C67.6043 11.9717 67.6853 11.1383 67.8535 10.3974C68.0154 9.66268 68.3518 9.08233 68.8439 8.65633C69.3423 8.2365 70.0711 8.02041 71.0366 8.02041C72.0582 8.02041 72.8057 8.23032 73.2915 8.65633C73.7712 9.08233 74.0951 9.66268 74.2633 10.3974C74.4315 11.1321 74.5125 11.9656 74.5125 12.8978V28.1784C74.5125 29.0798 74.4315 29.9133 74.2633 30.6788C74.1013 31.4444 73.7712 32.0433 73.2915 32.4816C72.8119 32.92 72.0582 33.1361 71.0366 33.1361C70.015 33.1361 69.2986 32.92 68.8065 32.4816M76.755 36.2663C78.1441 35.3772 79.1532 34.1239 79.7699 32.5002C80.3928 30.8764 80.698 28.9563 80.698 26.746V14.2932C80.698 12.052 80.3866 10.1381 79.7699 8.53902C79.147 6.93997 78.1441 5.71752 76.755 4.87169C75.3596 4.02586 73.4535 3.59985 71.0304 3.59985C68.6072 3.59985 66.7758 4.02586 65.368 4.87169C63.9603 5.71752 62.9574 6.93997 62.3531 8.53902C61.7489 10.1381 61.4437 12.0582 61.4437 14.2932V26.7028C61.4437 28.944 61.7489 30.8826 62.3531 32.5187C62.9574 34.1548 63.9665 35.4143 65.368 36.2848C66.7758 37.1553 68.657 37.5937 71.0304 37.5937C73.4037 37.5937 75.3659 37.1492 76.755 36.2601M51.7698 37.1492L58.5035 3.97029H52.9658L48.8296 27.4437L44.4131 3.97029H39L45.7337 37.1492H51.7698Z" fill="white"/>
</g>
</g>
<defs>
<clipPath id="clip0_221_3226">
<rect width="25.2421" height="22.3736" fill="white" transform="translate(7.66211 9.38274)"/>
</clipPath>
<clipPath id="clip1_221_3226">
<rect width="71" height="34" fill="white" transform="translate(39 3.59985)"/>
</clipPath>
</defs>
</svg>
