<svg width="125" height="46" viewBox="0 0 125 46" fill="none" xmlns="http://www.w3.org/2000/svg">
<rect y="23" width="32.5269" height="32.5269" rx="5" transform="rotate(-45 0 23)" fill="#5389BB"/>
<g clip-path="url(#clip0_204_650)">
<path d="M22.9972 16.8527L18.5763 10.6387L18.9216 18.0903L11.4243 15.4851L16.3998 21.3248L8.68799 23.3216L16.3998 25.3236L11.4243 31.1632L18.9216 28.558L18.5763 36.0097L22.9972 29.7904L27.4234 36.0097L27.0781 28.558L34.5754 31.1632L29.5999 25.3236L37.3117 23.3216L29.5999 21.3248L34.5754 15.4851L27.0781 18.0903L27.4234 10.6387L22.9972 16.8527Z" fill="white"/>
</g>
<g clip-path="url(#clip1_204_650)">
<mask id="mask0_204_650" style="mask-type:luminance" maskUnits="userSpaceOnUse" x="44" y="4" width="81" height="39">
<path d="M124.736 4.08105H44.2246V42.636H124.736V4.08105Z" fill="white"/>
</mask>
<g mask="url(#mask0_204_650)">
<path d="M105.431 42.1249L109.599 16.9L113.816 42.1249H119.439L124.736 4.50112H119.015L115.921 28.8858L111.895 4.59213H107.162L103.227 28.8858L100.084 4.50112H94.2707L99.6603 42.1249H105.424H105.431ZM78.0172 36.8251C77.4521 36.328 77.0848 35.6489 76.9153 34.7807C76.7457 33.9126 76.661 32.9675 76.661 31.9453V14.6247C76.661 13.5745 76.7528 12.6294 76.9435 11.7892C77.1272 10.9561 77.5086 10.298 78.0666 9.81493C78.6317 9.33886 79.4582 9.09382 80.5531 9.09382C81.7115 9.09382 82.5591 9.33186 83.1101 9.81493C83.654 10.298 84.0213 10.9561 84.212 11.7892C84.4028 12.6224 84.4946 13.5675 84.4946 14.6247V31.9523C84.4946 32.9745 84.4028 33.9196 84.212 34.7878C84.0284 35.6559 83.654 36.335 83.1101 36.8321C82.5662 37.3291 81.7115 37.5742 80.5531 37.5742C79.3946 37.5742 78.5823 37.3291 78.0243 36.8321M87.0375 41.1237C88.6127 40.1156 89.757 38.6944 90.4563 36.8531C91.1627 35.0118 91.5088 32.8345 91.5088 30.3281V16.2069C91.5088 13.6655 91.1556 11.4952 90.4563 9.68191C89.75 7.86863 88.6127 6.48242 87.0375 5.52328C85.4552 4.56413 83.2938 4.08105 80.546 4.08105C77.7982 4.08105 75.7215 4.56413 74.1251 5.52328C72.5287 6.48242 71.3915 7.86863 70.7063 9.68191C70.0211 11.4952 69.675 13.6725 69.675 16.2069V30.2791C69.675 32.8204 70.0211 35.0188 70.7063 36.8741C71.3915 38.7294 72.5358 40.1576 74.1251 41.1447C75.7215 42.1319 77.8547 42.629 80.546 42.629C83.2373 42.629 85.4623 42.1249 87.0375 41.1167M58.7051 42.1249L66.341 4.50112H60.0614L55.3711 31.1192L50.3629 4.50112H44.2246L51.8604 42.1249H58.7051Z" fill="#20221E"/>
</g>
</g>
<defs>
<clipPath id="clip0_204_650">
<rect width="28.6237" height="25.371" fill="white" transform="translate(8.68799 10.6387)"/>
</clipPath>
<clipPath id="clip1_204_650">
<rect width="80.5117" height="38.5549" fill="white" transform="translate(44.2246 4.08105)"/>
</clipPath>
</defs>
</svg>
