<svg width="39" height="31" viewBox="0 0 39 31" fill="none" xmlns="http://www.w3.org/2000/svg">
<g clip-path="url(#clip0_330_63)">
<path d="M39 12.4266C39 12.2372 38.8987 12.0631 38.7357 11.9691L36.0567 10.4265L38.7372 8.87539C38.9002 8.78069 39.0008 8.60581 39.0008 8.41717C39.0008 8.22854 38.8995 8.05365 38.7364 7.95972C34.1684 5.33031 29.6012 2.70014 25.0346 0.0699628C24.8716 -0.023972 24.6713 -0.023972 24.5091 0.0699628L0.263555 14.1052C0.100547 14.1991 0 14.374 0 14.5634C0 14.7528 0.100547 14.9269 0.264316 15.0209C1.15705 15.5356 2.05055 16.0488 2.94328 16.5635L0.263555 18.1146C0.100547 18.2093 0 18.3842 0 18.5728C0 18.7622 0.101309 18.9363 0.264316 19.0303L2.94328 20.5729L0.262793 22.124C0.100547 22.2187 0 22.3936 0 22.5822C0 22.7716 0.101309 22.9458 0.264316 23.0397L13.9654 30.9287C14.0469 30.9753 14.1375 30.9989 14.2281 30.9989C14.3188 30.9989 14.4102 30.9753 14.4917 30.9279L38.7372 16.8934C38.9002 16.7988 39.0008 16.6246 39.0008 16.4352C39.0008 16.2466 38.8995 16.0717 38.7364 15.9778L36.0575 14.4351L38.738 12.884C38.901 12.7893 39.0015 12.6152 39.0015 12.4258L39 12.4266ZM24.7734 1.13761C28.9872 3.56541 33.2018 5.99167 37.4171 8.41794L28.2918 13.6989C28.0015 13.5339 27.4691 13.2285 26.7767 12.8306L31.9648 9.82925C32.0897 9.7567 32.1796 9.6368 32.2131 9.49704C32.2474 9.35729 32.223 9.20913 32.1453 9.08694C32.0341 8.91205 31.8703 8.5638 32.0288 8.19876C32.1354 7.95208 32.0402 7.6634 31.8078 7.52976L26.1993 4.29779C26.0637 4.21989 25.9 4.20615 25.7529 4.26113C25.0324 4.53072 24.049 4.48795 23.2484 4.15269C23.0976 4.09007 22.9239 4.09999 22.7815 4.18247L17.2918 7.36098C17.0899 7.24413 16.8957 7.13264 16.7167 7.02877L15.6541 6.41552L24.7734 1.13761ZM31.0157 9.15796L25.7179 12.2227C23.5592 10.9801 20.5854 9.26411 18.346 7.97117L23.09 5.22416C23.9972 5.54185 25.024 5.58233 25.8771 5.33184L30.9288 8.24229C30.8839 8.54318 30.9144 8.85401 31.0164 9.1572L31.0157 9.15796ZM10.6991 9.28321C11.2079 9.57647 11.7175 9.86973 12.2263 10.163L7.04742 13.1628C6.9225 13.2346 6.83262 13.3552 6.7991 13.495C6.76482 13.6355 6.7892 13.7829 6.86689 13.9051C6.97811 14.08 7.14188 14.4282 6.9842 14.7933C6.87756 15.04 6.97277 15.3286 7.2051 15.4623L12.8121 18.6889C12.9477 18.7668 13.1122 18.7805 13.2592 18.7256C13.9791 18.456 14.9624 18.498 15.7638 18.8332C15.8285 18.8607 15.8978 18.8737 15.9664 18.8737C16.0578 18.8737 16.1492 18.85 16.2299 18.8027L17.0937 18.3025C18.6347 17.4105 20.1756 16.5177 21.7174 15.6265L23.3444 16.5628L14.2274 21.8422C10.0128 19.4167 5.79744 16.9897 1.58361 14.5619L10.6999 9.28397L10.6991 9.28321ZM7.99576 13.8333L13.2836 10.7709C15.5139 12.0554 17.7442 13.3392 19.9746 14.623L20.6609 15.0178C19.2959 15.8075 17.9316 16.5971 16.5674 17.3868L15.9207 17.761C15.0127 17.4433 13.9867 17.4036 13.1336 17.6533L8.08412 14.7475C8.1283 14.4466 8.09859 14.1357 7.99652 13.8333H7.99576ZM4.00055 17.1714C7.32164 19.0845 10.6435 20.9976 13.9654 22.9091C14.0469 22.9557 14.1375 22.9794 14.2281 22.9794C14.3188 22.9794 14.4102 22.9557 14.4917 22.9083L23.8753 17.4746L23.8822 20.2629L14.2274 25.8509L1.58285 18.5713L4.00055 17.1722V17.1714ZM14.2274 29.861L1.58285 22.5807L4.00055 21.1816L13.9654 26.9193C14.0469 26.9659 14.1375 26.9895 14.2281 26.9895C14.3188 26.9895 14.4102 26.9659 14.4917 26.9185L23.8852 21.481L23.8921 24.2669L14.2281 29.861H14.2274ZM24.944 23.6583L24.9265 16.5597C24.9265 16.3711 24.8252 16.1962 24.6622 16.103C24.6622 16.103 14.6684 10.3516 11.7541 8.67301L14.5968 7.02801C14.5968 7.02801 26.8917 14.125 27.7692 14.6054L27.7837 22.0148L24.9432 23.6598L24.944 23.6583ZM37.4171 16.4375L28.8379 21.4038L28.8326 18.6171L35.0017 15.0461L37.4179 16.4368L37.4171 16.4375ZM28.8295 17.399L28.8242 14.6115L35.001 11.0367L37.4171 12.4281L28.8295 17.399ZM12.694 15.5845C12.5486 15.3317 12.6346 15.0086 12.8868 14.8628L15.1955 13.5263C15.4469 13.3804 15.7699 13.4667 15.9154 13.7195C16.0608 13.9723 15.9748 14.2954 15.7226 14.4412L13.4139 15.7777C13.3308 15.8258 13.2402 15.8487 13.1503 15.8487C12.9683 15.8487 12.7908 15.754 12.694 15.5845ZM26.6099 7.52823C26.7554 7.78101 26.6693 8.10406 26.4172 8.24992L24.3864 9.42525C24.3034 9.47337 24.2128 9.49628 24.1236 9.49628C23.9416 9.49628 23.7641 9.40158 23.6674 9.23204C23.5219 8.97925 23.6079 8.65621 23.8601 8.51035L25.8908 7.33502C26.1429 7.18915 26.4652 7.27545 26.6106 7.52823H26.6099Z" fill="black"/>
</g>
<defs>
<clipPath id="clip0_330_63">
<rect width="39" height="31" fill="white"/>
</clipPath>
</defs>
</svg>
