<svg width="31" height="31" viewBox="0 0 31 31" fill="none" xmlns="http://www.w3.org/2000/svg">
<g clip-path="url(#clip0_330_65)">
<path d="M0.499813 31.0001H28.1324C28.409 31.0001 28.6323 30.7813 28.6323 30.512V10.2323C28.6323 9.96299 28.409 9.74423 28.1324 9.74423H27.8482V9.32631C27.8482 8.65567 27.2896 8.11027 26.6029 8.11027H26.3286V6.47932C27.635 6.2764 28.6786 5.29572 28.9389 4.03743H29.4503C30.3047 4.03743 30.9992 3.3585 30.9992 2.52493V1.37452C30.9992 1.10521 30.776 0.886439 30.4994 0.886439H28.9644C28.8911 0.706145 28.7126 0.577148 28.5017 0.577148H23.1552C22.8879 0.577148 22.6747 0.783091 22.6608 1.04033H21.1721C20.8956 1.04033 20.6723 1.2591 20.6723 1.52841V2.67957C20.6723 3.5139 21.3668 4.19208 22.2212 4.19208H22.7589C23.0702 5.37493 24.0775 6.2847 25.3298 6.47932V8.11027H25.0548C24.368 8.11027 23.8095 8.65567 23.8095 9.32631V9.74423H23.5399C23.2633 9.74423 23.0401 9.96299 23.0401 10.2323V12.6108H18.8762C18.5997 12.6108 18.3764 12.8296 18.3764 13.0989V15.3484H14.2821C14.0056 15.3484 13.7823 15.5672 13.7823 15.8365V17.9978H13.0894C13.1466 17.8409 13.1836 17.6749 13.1836 17.4991V13.2468C13.1836 12.036 12.2968 11.0236 11.1249 10.7966V8.88048L12.3949 9.49227C13.0593 9.81061 13.4084 9.4636 15.9716 8.95063C16.792 8.76129 17.3026 7.95562 17.1087 7.15448C16.9094 6.3277 16.0535 5.8615 15.3042 6.03726L12.4714 6.48687C11.4949 5.98144 11.0948 5.63066 10.2458 5.4481L7.39909 4.83556C6.42186 4.62509 5.41451 4.79256 4.56321 5.30477C2.77794 6.40464 2.72927 6.34882 2.61726 6.55551L0.808044 9.90793C0.47741 10.5092 0.70839 11.2552 1.32176 11.5773C1.93668 11.9002 2.70069 11.6769 3.0321 11.0757L4.56475 8.29358L5.40756 7.93525C5.46241 9.59185 5.55897 13.685 5.24688 15.3341L2.03865 18.9513C1.46777 19.5955 1.53884 20.5739 2.19856 21.1314C2.85905 21.6896 3.85791 21.6218 4.43188 20.9753L4.68604 20.6886C4.63351 20.7655 4.59565 20.8531 4.59565 20.9526V23.4571H0.499813C0.223255 23.4571 0 23.6759 0 23.9452V30.5097C0 30.779 0.224027 30.9978 0.499813 30.9978V31.0001ZM29.9996 2.52493C29.9996 3.22423 29.0911 3.04016 29.0015 3.06128V1.86184H29.9996V2.52417V2.52493ZM21.672 2.67957V2.01648H22.6554V3.21593C22.5758 3.19631 21.672 3.37435 21.672 2.67957ZM23.6697 3.56445V1.5533H28.0019V3.42338C28.0019 4.5934 27.0262 5.54617 25.8281 5.54617C24.6299 5.54617 23.7454 4.66809 23.6697 3.5652V3.56445ZM24.8091 9.32706C24.8091 9.19505 24.9196 9.08717 25.0548 9.08717H26.6037C26.7388 9.08717 26.8493 9.19505 26.8493 9.32706V9.50736H24.8091V9.32706ZM5.59374 21.443H9.18744V30.0239H5.59374V21.443ZM27.6326 30.0239H24.0389V10.7211H27.6326V30.0239ZM19.3753 13.5877H22.969V30.0239H19.3753V13.5877ZM14.7812 16.3253H18.3757V30.0231H14.7812V16.3253ZM13.7816 30.0239H10.1878V18.9754C11.4594 19.0003 12.5942 18.986 13.7816 18.9754V30.0239ZM3.67482 20.3378C3.17656 20.8991 2.28122 20.1688 2.79262 19.5917L6.08737 15.8772C6.65902 15.2323 6.41723 8.04539 6.3786 7.18239C6.37165 7.02171 6.28359 6.87461 6.14453 6.78937C6.00316 6.70262 5.82781 6.69206 5.68026 6.75542C4.03172 7.49093 3.9058 7.42681 3.76443 7.68254L2.14989 10.614C2.08114 10.7385 1.92355 10.7853 1.79454 10.7181C1.67171 10.654 1.61532 10.5024 1.68948 10.3673L3.43689 7.12883L5.08697 6.13533C5.71656 5.75664 6.45894 5.63292 7.18356 5.78908L10.0303 6.40162C11.0531 6.62114 11.9808 7.55581 12.4582 7.47811L15.4988 6.9938C15.7908 6.92742 16.0705 7.1062 16.1354 7.37853C16.2026 7.65614 16.0257 7.93525 15.7422 8.00088C12.9086 8.63455 12.9797 8.6851 12.8368 8.6172L10.8468 7.65765C10.6923 7.58296 10.5084 7.59202 10.3617 7.68103C10.2149 7.77005 10.126 7.92696 10.126 8.09518V11.2371C10.126 11.5064 10.3493 11.7252 10.6259 11.7252C11.4857 11.7252 12.1848 12.4079 12.1848 13.2475V17.4999C12.1848 18.0581 11.1257 18.215 11.1257 17.4999V14.5254C11.1257 13.5379 10.3029 12.7345 9.29173 12.7345C8.28052 12.7345 7.4578 13.5379 7.4578 14.5254C7.41376 15.6683 7.56981 15.9489 7.28089 16.2733L3.67637 20.3371L3.67482 20.3378ZM8.03486 16.913C8.66446 16.2039 8.3879 15.4699 8.45588 14.5254C8.45588 14.0758 8.83055 13.7107 9.29019 13.7107C9.74983 13.7107 10.1245 14.0758 10.1245 14.5254V17.4999C10.1245 17.6757 10.1616 17.8416 10.2187 17.9985H9.68803C9.41147 17.9985 9.18822 18.2173 9.18822 18.4866V20.4661H5.09469C4.97341 20.4661 4.86603 20.5136 4.77951 20.5837L8.03563 16.913H8.03486ZM0.999626 24.4355H4.59411V30.0239H0.999626V24.4355Z" fill="black"/>
<path d="M8.97198 4.53149C10.2513 4.53149 11.2926 3.51535 11.2926 2.26612C11.2926 1.01689 10.2513 0 8.97198 0C7.69271 0 6.65137 1.01613 6.65137 2.26537C6.65137 3.5146 7.69194 4.53149 8.97198 4.53073V4.53149ZM8.97198 0.976152C9.70046 0.976152 10.2922 1.55475 10.2922 2.26537C10.2922 2.97598 9.70046 3.55458 8.97198 3.55458C8.24351 3.55458 7.65177 2.97598 7.65177 2.26537C7.65177 1.55475 8.24351 0.976152 8.97198 0.976152Z" fill="black"/>
</g>
<defs>
<clipPath id="clip0_330_65">
<rect width="31" height="31" fill="white"/>
</clipPath>
</defs>
</svg>
