<svg width="30" height="31" viewBox="0 0 30 31" fill="none" xmlns="http://www.w3.org/2000/svg">
<g clip-path="url(#clip0_330_56)">
<path d="M15.1731 14.2358C15.3341 14.2358 15.495 14.1535 15.5828 14.0033C16.251 12.8699 16.6022 11.5718 16.6022 10.2446C16.6022 6.10318 13.2076 2.73193 9.03755 2.73193C8.77418 2.73193 8.56445 2.94021 8.56445 3.20178V10.2446C8.56445 10.4141 8.65224 10.5691 8.79856 10.6515L14.939 14.1729C15.0122 14.2165 15.0902 14.2358 15.1731 14.2358ZM9.50576 3.68615C12.9345 3.92834 15.6511 6.77646 15.6511 10.2446C15.6511 11.2472 15.4219 12.2305 14.9829 13.1169L9.50089 9.97334V3.68615H9.50576Z" fill="black"/>
<path d="M29.9659 6.03531C29.9415 5.97719 29.9073 5.92391 29.8634 5.88516L24.0839 0.140469C24.04 0.096875 23.9863 0.0629687 23.9327 0.03875C23.8742 0.0145312 23.8108 0 23.7522 0H6.88181C6.10145 0 5.46253 0.629688 5.46253 1.40953V3.72969C2.31182 4.63547 0 7.52234 0 10.942C0 13.0055 0.843765 14.88 2.2094 16.2411C2.21427 16.2411 2.21427 16.2508 2.21915 16.2556C2.22403 16.2605 2.22891 16.2556 2.23378 16.2653C3.12144 17.142 4.22858 17.8008 5.46253 18.1544V29.5905C5.46253 30.3655 6.09657 31 6.88181 31H28.5807C29.3611 31 30 30.3703 30 29.5905V6.21453C30 6.15156 29.9902 6.08859 29.9659 6.03531ZM24.2205 1.60328L28.3856 5.74469H24.2205V1.60328ZM7.09641 4.38359V10.7483L2.57519 15.2384C1.5656 14.0856 0.951065 12.5841 0.951065 10.942C0.951065 7.47391 3.6677 4.62578 7.09641 4.38359ZM3.2385 15.9069L7.64266 11.533L13.0418 14.633C11.8225 16.4252 9.76427 17.5198 7.56462 17.5198C5.91123 17.5198 4.40416 16.9047 3.2385 15.9069ZM28.5807 30.0603H6.88181C6.61844 30.0603 6.40871 29.852 6.40871 29.5905V18.3578C6.78914 18.4159 7.16957 18.4547 7.56462 18.4547C10.2569 18.4547 12.7687 17.0161 14.1148 14.7008C14.1197 14.6959 14.1197 14.6862 14.1197 14.6814C14.1392 14.6475 14.1489 14.6088 14.1587 14.57C14.1636 14.5458 14.1733 14.5264 14.1733 14.5022C14.1733 14.4877 14.1782 14.478 14.1782 14.4683C14.1782 14.4441 14.1684 14.4198 14.1636 14.3956C14.1587 14.3714 14.1587 14.3472 14.1489 14.323C14.1392 14.2891 14.1197 14.26 14.105 14.2309C14.0904 14.2067 14.0806 14.1873 14.0611 14.168C14.0367 14.1438 14.0124 14.1195 13.9831 14.1002C13.9685 14.0905 13.9587 14.0711 13.9441 14.0663L8.04259 10.6805V3.89922C8.04259 3.63766 7.83287 3.42937 7.5695 3.42937C7.17444 3.42937 6.78914 3.46813 6.41359 3.52625V1.40953C6.41359 1.14797 6.62331 0.939688 6.88669 0.939688H23.2791V6.21453C23.2791 6.47609 23.4889 6.68438 23.7522 6.68438H29.0587V29.5905C29.0587 29.852 28.8441 30.0603 28.5807 30.0603Z" fill="black"/>
<path d="M25.9424 17.2583C25.0498 17.2583 24.328 17.98 24.328 18.8616C24.328 19.1377 24.406 19.3944 24.5279 19.622L22.2064 21.9761C21.982 21.8599 21.7382 21.7921 21.4699 21.7921C20.8749 21.7921 20.3628 22.1166 20.0799 22.5913L16.7438 21.8211C16.6853 20.988 15.9928 20.3292 15.1392 20.3292C14.2857 20.3292 13.5249 21.051 13.5249 21.9325C13.5249 22.1892 13.5931 22.4314 13.7053 22.6494L10.3107 25.8705C10.0766 25.7397 9.81327 25.6622 9.53039 25.6622C8.63785 25.6622 7.91602 26.3839 7.91602 27.2655C7.91602 28.147 8.64273 28.8688 9.53039 28.8688C10.418 28.8688 11.1448 28.147 11.1448 27.2655C11.1448 27.0088 11.0765 26.7666 10.9643 26.5486L14.3589 23.3275C14.593 23.4583 14.8564 23.5358 15.1392 23.5358C15.7343 23.5358 16.2512 23.2113 16.5292 22.7366L19.8653 23.5067C19.9238 24.3399 20.6164 24.9986 21.4699 24.9986C22.3234 24.9986 23.0843 24.2769 23.0843 23.3953C23.0843 23.1192 23.0062 22.8625 22.8843 22.6349L25.2059 20.2808C25.4302 20.397 25.6741 20.4649 25.9424 20.4649C26.8349 20.4649 27.5567 19.7431 27.5567 18.8616C27.5567 17.98 26.83 17.2583 25.9424 17.2583ZM9.52551 27.9291C9.15484 27.9291 8.85733 27.6288 8.85733 27.2655C8.85733 26.9022 9.15972 26.6019 9.52551 26.6019C9.71085 26.6019 9.87667 26.6745 9.9986 26.7956C10.0035 26.7956 10.0035 26.8053 10.0035 26.8053H10.0084C10.1205 26.9264 10.1937 27.0863 10.1937 27.2606C10.1937 27.6288 9.89618 27.9242 9.52551 27.9242V27.9291ZM15.1392 22.5961C14.7686 22.5961 14.471 22.2958 14.471 21.9325C14.471 21.5692 14.7734 21.2689 15.1392 21.2689C15.505 21.2689 15.8074 21.5692 15.8074 21.9325C15.8074 22.2958 15.505 22.5961 15.1392 22.5961ZM21.4699 24.0589C21.0992 24.0589 20.8017 23.7586 20.8017 23.3953C20.8017 23.032 21.1041 22.7317 21.4699 22.7317C21.6504 22.7317 21.8113 22.8044 21.9284 22.9158C21.9284 22.9158 21.9284 22.9158 21.9284 22.9255C21.9284 22.9255 21.9381 22.9255 21.9381 22.9352C22.0552 23.0563 22.1283 23.221 22.1283 23.4002C22.1283 23.7635 21.8308 24.0589 21.465 24.0589H21.4699ZM25.9424 19.5252C25.5717 19.5252 25.2742 19.2249 25.2742 18.8616C25.2742 18.4983 25.5766 18.198 25.9424 18.198C26.3081 18.198 26.6105 18.4983 26.6105 18.8616C26.6105 19.2249 26.313 19.5252 25.9424 19.5252Z" fill="black"/>
<path d="M18.0268 8.95116H23.7527C24.0161 8.95116 24.2258 8.74288 24.2258 8.48132C24.2258 8.21976 24.0161 8.01147 23.7527 8.01147H18.0268C17.7634 8.01147 17.5537 8.21976 17.5537 8.48132C17.5537 8.74288 17.7634 8.95116 18.0268 8.95116Z" fill="black"/>
<path d="M18.0268 11.4119H26.3523C26.6157 11.4119 26.8254 11.2036 26.8254 10.942C26.8254 10.6804 26.6157 10.4722 26.3523 10.4722H18.0268C17.7634 10.4722 17.5537 10.6804 17.5537 10.942C17.5537 11.2036 17.7634 11.4119 18.0268 11.4119Z" fill="black"/>
<path d="M18.0268 13.8725H26.3523C26.6157 13.8725 26.8254 13.6643 26.8254 13.4027C26.8254 13.1411 26.6157 12.9329 26.3523 12.9329H18.0268C17.7634 12.9329 17.5537 13.1411 17.5537 13.4027C17.5537 13.6643 17.7634 13.8725 18.0268 13.8725Z" fill="black"/>
</g>
<defs>
<clipPath id="clip0_330_56">
<rect width="30" height="31" fill="white"/>
</clipPath>
</defs>
</svg>
