<svg width="39" height="31" viewBox="0 0 39 31" fill="none" xmlns="http://www.w3.org/2000/svg">
  <path
    fill="black"
    d="M7 25C6.44772 25 6 24.5523 6 24V8C6 7.44772 6.44772 7 7 7C7.55228 7 8 7.44772 8 8V23H33C33.5523 23 34 23.4477 34 24C34 24.5523 33.5523 25 33 25H7ZM12 21V14C12 13.4477 12.4477 13 13 13H15C15.5523 13 16 13.4477 16 14V21H12ZM18 21V10C18 9.44772 18.4477 9 19 9H21C21.5523 9 22 9.44772 22 10V21H18ZM24 21V16C24 15.4477 24.4477 15 25 15H27C27.5523 15 28 15.4477 28 16V21H24ZM29 12C29 11.4477 29.4477 11 30 11H33C33.5523 11 34 11.4477 34 12V15C34 15.5523 33.5523 16 33 16C32.4477 16 32 15.5523 32 15V14.4142L27.7071 18.7071C27.3166 19.0976 26.6834 19.0976 26.2929 18.7071L23 15.4142L16.7071 21.7071C16.3166 22.0976 15.6834 22.0976 15.2929 21.7071C14.9024 21.3166 14.9024 20.6834 15.2929 20.2929L22.2929 13.2929C22.6834 12.9024 23.3166 12.9024 23.7071 13.2929L27 16.5858L30.5858 13H30C29.4477 13 29 12.5523 29 12Z"
  />
</svg>
