<svg width="39" height="31" viewBox="0 0 39 31" fill="none" xmlns="http://www.w3.org/2000/svg">
  <path
    fill="black"
    d="M14.5 6C14.5 4.34315 15.8431 3 17.5 3H21.5C23.1569 3 24.5 4.34315 24.5 6V7H31C32.6569 7 34 8.34315 34 10V24C34 25.6569 32.6569 27 31 27H8C6.34315 27 5 25.6569 5 24V10C5 8.34315 6.34315 7 8 7H14.5V6ZM16.5 6V7H22.5V6C22.5 5.44772 22.0523 5 21.5 5H17.5C16.9477 5 16.5 5.44772 16.5 6ZM8 9C7.44772 9 7 9.44772 7 10V24C7 24.5523 7.44772 25 8 25H31C31.5523 25 32 24.5523 32 24V10C32 9.44772 31.5523 9 31 9H8Z"
  />
</svg>
