<svg width="39" height="31" viewBox="0 0 39 31" fill="none" xmlns="http://www.w3.org/2000/svg">
  <path
    fill="black"
    d="M7 6.5C7 5.11929 8.11929 4 9.5 4H29.5C30.8807 4 32 5.11929 32 6.5V20.5C32 21.8807 30.8807 23 29.5 23H9.5C8.11929 23 7 21.8807 7 20.5V6.5ZM9.5 6C9.22386 6 9 6.22386 9 6.5V20.5C9 20.7761 9.22386 21 9.5 21H29.5C29.7761 21 30 20.7761 30 20.5V6.5C30 6.22386 29.7761 6 29.5 6H9.5Z"
  />
  <path
    fill="black"
    d="M4 24.5C4 23.6716 4.67157 23 5.5 23H33.5C34.3284 23 35 23.6716 35 24.5V25C35 26.6569 33.6569 28 32 28H7C5.34315 28 4 26.6569 4 25V24.5ZM6 25V25C6 25.5523 6.44772 26 7 26H32C32.5523 26 33 25.5523 33 25V25H6Z"
  />
</svg>

