<svg width="39" height="31" viewBox="0 0 39 31" fill="none" xmlns="http://www.w3.org/2000/svg">
  <path
    fill="black"
    d="M19.5 4C14.8056 4 11 7.80558 11 12.5C11 15.6667 12.6 18.1333 14.6 19.9C15.2 20.4333 15.5 21.1333 15.5 21.9V22.5C15.5 23.3284 16.1716 24 17 24H22C22.8284 24 23.5 23.3284 23.5 22.5V21.9C23.5 21.1333 23.8 20.4333 24.4 19.9C26.4 18.1333 28 15.6667 28 12.5C28 7.80558 24.1944 4 19.5 4ZM13 12.5C13 8.91015 15.9101 6 19.5 6C23.0899 6 26 8.91015 26 12.5C26 14.9333 24.7333 16.9333 23.0667 18.4C22.0667 19.2833 21.5 20.5167 21.5 21.9V22H17.5V21.9C17.5 20.5167 16.9333 19.2833 15.9333 18.4C14.2667 16.9333 13 14.9333 13 12.5ZM16 26C16 25.4477 16.4477 25 17 25H22C22.5523 25 23 25.4477 23 26C23 26.5523 22.5523 27 22 27H17C16.4477 27 16 26.5523 16 26Z"
  />
</svg>
