<svg width="39" height="31" viewBox="0 0 39 31" fill="none" xmlns="http://www.w3.org/2000/svg">
  <path
    fill-rule="evenodd"
    clip-rule="evenodd"
    fill="black"
    d="M19.5 4C16.2 7.7 15 12 15 17C15 20.9 17 24.1 19.5 27C22 24.1 24 20.9 24 17C24 12 22.8 7.7 19.5 4ZM19.5 11C18.3954 11 17.5 11.8954 17.5 13C17.5 14.1046 18.3954 15 19.5 15C20.6046 15 21.5 14.1046 21.5 13C21.5 11.8954 20.6046 11 19.5 11ZM15 18L10 22H15V18ZM24 18V22H29L24 18ZM19.5 27C18.2 28.2 18 29.7 19.5 31C21 29.7 20.8 28.2 19.5 27Z"
  />
</svg>
