<svg width="38" height="41" viewBox="0 0 38 41" fill="none" xmlns="http://www.w3.org/2000/svg">
<g clip-path="url(#clip0_607_781)">
<path d="M36.1 41H1.9C0.855 41 0 40.1352 0 39.0781V21.1406C0 20.7883 0.285 20.5 0.633333 20.5H13.9333C14.2247 20.5 14.478 20.6986 14.5477 20.9869L15.0607 23.0625H22.9393L23.4523 20.9869C23.522 20.705 23.7753 20.5 24.0667 20.5H37.3667C37.715 20.5 38 20.7883 38 21.1406V39.0781C38 40.1352 37.145 41 36.1 41ZM1.26667 21.7812V39.0781C1.26667 39.4305 1.55167 39.7188 1.9 39.7188H36.1C36.4483 39.7188 36.7333 39.4305 36.7333 39.0781V21.7812H24.5607L24.0477 23.8569C23.978 24.1388 23.7247 24.3438 23.4333 24.3438H14.5667C14.2753 24.3438 14.022 24.1452 13.9523 23.8569L13.4393 21.7812H1.26667Z" fill="black"/>
<path d="M27.2328 35.2344H10.7661C10.4178 35.2344 10.1328 34.9461 10.1328 34.5938V29.4688C10.1328 29.1164 10.4178 28.8281 10.7661 28.8281H27.2328C27.5811 28.8281 27.8661 29.1164 27.8661 29.4688V34.5938C27.8661 34.9461 27.5811 35.2344 27.2328 35.2344ZM11.3995 33.9531H26.5995V30.1094H11.3995V33.9531Z" fill="black"/>
<path d="M1.25305 21.2623L0.0117188 21.0189L3.17839 4.36266C3.23539 4.06156 3.49505 3.84375 3.79905 3.84375H6.33239V5.125H4.32472L1.25939 21.2623H1.25305Z" fill="black"/>
<path d="M36.7449 21.2623L33.6795 5.125H31.6719V3.84375H34.2052C34.5092 3.84375 34.7689 4.06156 34.8259 4.36266L37.9925 21.0189L36.7512 21.2623H36.7449Z" fill="black"/>
<path d="M34.2008 18.5781H32.9341V12.8125H5.06745V18.5781H3.80078V12.1719C3.80078 11.8195 4.08578 11.5312 4.43411 11.5312H33.5674C33.9158 11.5312 34.2008 11.8195 34.2008 12.1719V18.5781Z" fill="black"/>
<path d="M32.2992 10.8906H31.0326V8.32812H6.96589V10.8906H5.69922V7.6875C5.69922 7.33516 5.98422 7.04688 6.33255 7.04688H31.6659C32.0142 7.04688 32.2992 7.33516 32.2992 7.6875V10.8906Z" fill="black"/>
<path d="M30.4016 6.40625H29.1349V4.48438H8.86823V6.40625H7.60156V3.84375C7.60156 3.49141 7.88656 3.20312 8.2349 3.20312H29.7682C30.1166 3.20312 30.4016 3.49141 30.4016 3.84375V6.40625Z" fill="black"/>
<path d="M28.5 2.5625H27.2333V1.28125H10.7667V2.5625H9.5V0.640625C9.5 0.288281 9.785 0 10.1333 0H27.8667C28.215 0 28.5 0.288281 28.5 0.640625V2.5625Z" fill="black"/>
</g>
<defs>
<clipPath id="clip0_607_781">
<rect width="38" height="41" fill="white"/>
</clipPath>
</defs>
</svg>
