<svg width="31" height="35" viewBox="0 0 31 35" fill="none" xmlns="http://www.w3.org/2000/svg">
<g clip-path="url(#clip0_607_774)">
<path d="M16.0582 5.80986C16.0582 5.5695 16.2497 5.37417 16.4854 5.37417H22.5167C22.7523 5.37417 22.9438 5.5695 22.9438 5.80986C22.9438 6.05021 22.7523 6.24554 22.5167 6.24554H16.4854C16.2497 6.24554 16.0582 6.05021 16.0582 5.80986ZM19.7043 3.89575H22.6519C22.8876 3.89575 23.0791 3.70042 23.0791 3.46006C23.0791 3.21971 22.8876 3.02438 22.6519 3.02438H19.7043C19.4686 3.02438 19.2771 3.21971 19.2771 3.46006C19.2771 3.70042 19.4686 3.89575 19.7043 3.89575ZM31 29.1734C31 32.3859 28.4368 35 25.287 35C23.8139 35 22.4697 34.4285 21.4558 33.4918H2.52898C1.1342 33.4918 0 32.3351 0 30.9126V8.72894C0 8.6222 0.0384474 8.51618 0.111782 8.43486L7.56559 0.141598C7.64819 0.0501037 7.76282 0.00145228 7.88029 0.00145228V0H23.2614C24.6562 0 25.7904 1.15674 25.7904 2.57925V23.3709C28.706 23.6323 31 26.1338 31 29.1734ZM1.39835 8.29326H5.13629C6.41431 8.29326 7.45381 7.23309 7.45381 5.92967V1.55539L1.39835 8.29326ZM20.6847 32.6204C20.2162 31.972 19.8773 31.2212 19.7043 30.4079H3.985C3.74933 30.4079 3.55781 30.2126 3.55781 29.9722V18.9835C3.55781 18.7432 3.74933 18.5478 3.985 18.5478H21.8054C22.041 18.5478 22.2326 18.7432 22.2326 18.9835V24.2531C23.0243 23.7405 23.9463 23.4202 24.9367 23.3585V2.57925C24.9367 1.63745 24.1856 0.871369 23.2621 0.871369H8.3082V5.92967C8.3082 7.71307 6.88565 9.16463 5.13629 9.16463H0.854387V30.9126C0.854387 31.8544 1.60554 32.6204 2.52898 32.6204H20.6847ZM19.5747 29.1734C19.5747 28.3072 19.7627 27.4852 20.0966 26.7452H18.0333V29.5365H19.5868C19.579 29.4167 19.5747 29.2954 19.5747 29.1734ZM20.5822 25.8739C20.8143 25.5311 21.0813 25.2145 21.3782 24.9306V23.0826H18.0325V25.8739H20.5822ZM21.3782 22.2112V19.4199H18.0325V22.2112H21.3782ZM17.1782 25.8739V23.0826H4.4122V25.8739H17.1782ZM4.4122 26.7452V29.5365H17.1782V26.7452H4.4122ZM17.1782 22.2112V19.4199H4.4122V22.2112H17.1782ZM30.1456 29.1734C30.1456 26.441 27.9662 24.2183 25.287 24.2183C22.6078 24.2183 20.4284 26.441 20.4284 29.1734C20.4284 31.9059 22.6085 34.1286 25.287 34.1286C27.9655 34.1286 30.1456 31.9059 30.1456 29.1734ZM28.5977 26.8222C28.4311 26.6523 28.1606 26.6523 27.9933 26.8222L24.2888 30.6003L22.58 28.8576C22.4134 28.6877 22.1429 28.6877 21.9755 28.8576C21.8089 29.0275 21.8089 29.3034 21.9755 29.4733L23.9862 31.524C24.0667 31.606 24.1749 31.6518 24.2881 31.6518C24.4013 31.6518 24.5102 31.606 24.59 31.524L28.597 27.4372C28.7651 27.2681 28.7651 26.9921 28.5977 26.8222Z" fill="black"/>
<path d="M17.0156 9.60449H19.3203C20.1626 9.60449 20.4033 9.95377 20.4033 10.8694V13.0972H19.8109V11.1998C19.8294 10.5862 19.6258 10.4635 19.0241 10.4635H17.7098V15.1268H17.0156V9.60449ZM18.4595 11.6907H19.0519V13.6259C19.0519 14.2206 19.4129 14.2678 19.9405 14.2678H21.1622V9.60449H21.8657V15.1268H19.4962C18.5428 15.1268 18.4318 14.5604 18.441 13.6636L18.4595 11.6907Z" fill="black"/>
</g>
<defs>
<clipPath id="clip0_607_774">
<rect width="31" height="35" fill="white"/>
</clipPath>
</defs>
</svg>
