<svg width="34" height="38" viewBox="0 0 34 38" fill="none" xmlns="http://www.w3.org/2000/svg">
<g clip-path="url(#clip0_607_778)">
<path d="M16.2387 17.2996C14.8116 17.2996 13.6504 18.4442 13.6504 19.8508C13.6504 20.6215 13.9939 21.3325 14.5854 21.8144V24.4583C14.5854 25.357 15.3269 26.0878 16.2387 26.0878C17.1504 26.0878 17.8919 25.357 17.8919 24.4583V21.8144C18.4826 21.3332 18.827 20.6215 18.827 19.8508C18.827 18.4442 17.6657 17.2996 16.2387 17.2996ZM16.9436 20.9793C16.7602 21.0911 16.6483 21.288 16.6483 21.501V24.4583C16.6483 24.6774 16.461 24.862 16.2387 24.862C16.0164 24.862 15.829 24.6774 15.829 24.4583V21.501C15.829 21.2888 15.7171 21.0911 15.5337 20.9793C15.1334 20.7357 14.894 20.3135 14.894 19.8508C14.894 19.1199 15.4972 18.5254 16.2387 18.5254C16.9802 18.5254 17.5833 19.1199 17.5833 19.8508C17.5833 20.3135 17.3439 20.7357 16.9436 20.9793ZM32.119 23.3129C32.3553 22.1239 32.4766 20.895 32.4766 19.6554V7.20966C32.4766 6.9645 32.3281 6.74309 32.0996 6.64655L16.4835 0.0494153C16.3273 -0.0164718 16.1501 -0.0164718 15.9938 0.0494153L0.376975 6.64579C0.148458 6.74232 0 6.96373 0 7.20889V19.6554C0 24.2346 1.58951 28.4253 4.59676 31.7741C7.49519 35.0025 11.5922 37.2097 16.1314 37.9897C16.1672 37.9958 16.2021 37.9989 16.2379 37.9989C16.2736 37.9989 16.3094 37.9958 16.3444 37.9897C19.3143 37.4794 22.1311 36.3478 24.5158 34.7145C25.2503 34.9673 26.0392 35.1044 26.86 35.1044C30.7969 35.1044 34 31.9472 34 28.0675C34 26.2357 33.2865 24.5655 32.1182 23.3122L32.119 23.3129ZM16.2387 36.7646C7.40425 35.1986 1.24363 28.1778 1.24363 19.6562V7.61341L16.2387 1.27905L31.2337 7.61341V19.6562C31.2337 20.5671 31.1638 21.4719 31.027 22.3568C30.5769 22.0373 30.088 21.7676 29.568 21.557C29.6419 20.931 29.6792 20.2944 29.6792 19.6562V9.02768C29.6792 8.78252 29.5307 8.56111 29.3022 8.46458L16.4835 3.04958C16.3273 2.98369 16.1501 2.98369 15.9938 3.04958L3.17514 8.46458C2.94662 8.56111 2.79816 8.78252 2.79816 9.02768V19.6554C2.79816 23.4891 4.10708 27.0057 6.58268 29.8235C8.9922 32.5655 12.2878 34.418 16.1151 35.1803C16.1555 35.1887 16.1967 35.1925 16.2387 35.1925C16.2806 35.1925 16.3211 35.1887 16.3623 35.1803C18.3489 34.7842 20.2035 34.087 21.884 33.1071C22.2811 33.4887 22.7234 33.8242 23.2014 34.1069C21.1285 35.407 18.7438 36.318 16.2387 36.7623V36.7646ZM19.7558 27.3734H9.47489C9.26114 27.3734 9.08703 27.2018 9.08703 26.9911V16.3948C9.08703 16.1841 9.26114 16.0125 9.47489 16.0125H23.0017C23.2154 16.0125 23.3895 16.1841 23.3895 16.3948V21.9209C21.3974 23.018 19.9905 25.0283 19.7566 27.3734H19.7558ZM21.1409 14.7867H19.8553V13.1594C19.8553 11.1935 18.2324 9.59385 16.2379 9.59385C14.2434 9.59385 12.6205 11.1935 12.6205 13.1594V14.7867H11.3349V13.1594C11.3349 10.4948 13.5338 8.32744 16.2371 8.32744C18.9404 8.32744 21.1393 10.4948 21.1393 13.1594V14.7867H21.1409ZM13.8649 14.7867V13.1594C13.8649 11.8693 14.9297 10.8197 16.2387 10.8197C17.5476 10.8197 18.6124 11.8693 18.6124 13.1594V14.7867H13.8657H13.8649ZM23.0017 14.7867H22.3845V13.1594C22.3845 9.81909 19.6276 7.10163 16.2387 7.10163C12.8498 7.10163 10.0928 9.81909 10.0928 13.1594V14.7867H9.47566C8.57637 14.7867 7.84418 15.5076 7.84418 16.3948V26.9911C7.84418 27.8775 8.57559 28.5992 9.47566 28.5992H19.7418C19.8421 29.9223 20.3162 31.1451 21.0593 32.164C19.5848 32.996 17.9665 33.5974 16.2394 33.9545C8.93857 32.4475 4.04257 26.7153 4.04257 19.6554V9.4322L16.2387 4.27998L28.4355 9.4322V19.6562C28.4355 20.1695 28.4091 20.682 28.3578 21.1877C27.8751 21.0858 27.3746 21.0314 26.8616 21.0314C26.0835 21.0314 25.335 21.1547 24.6339 21.3823V16.3948C24.6339 15.5084 23.9017 14.7867 23.0024 14.7867H23.0017ZM26.8608 33.8801C23.6095 33.8801 20.9652 31.273 20.9652 28.0691C20.9652 24.8651 23.6103 22.2572 26.8608 22.2572C30.1113 22.2572 32.7571 24.8643 32.7571 28.0691C32.7571 31.2738 30.1121 33.8801 26.8608 33.8801ZM30.9772 25.0413C30.678 24.7479 30.2808 24.5862 29.8579 24.5862H29.8517C29.4273 24.5878 29.0302 24.7525 28.7317 25.049L26.0019 27.7664L24.9876 26.7666C24.3681 26.156 23.36 26.156 22.7413 26.7666C22.1218 27.3772 22.1218 28.3701 22.7413 28.9807L24.8834 31.0922C25.1928 31.3971 25.6001 31.5503 26.0066 31.5503C26.4131 31.5503 26.8204 31.3979 27.1297 31.0922C27.9404 30.2931 28.7581 29.4757 29.5494 28.685C30.0274 28.207 30.5054 27.7289 30.9842 27.2524C31.599 26.6402 31.5959 25.6489 30.9764 25.0421L30.9772 25.0413ZM30.1012 26.3889C29.6217 26.8662 29.1429 27.3451 28.6641 27.8239C27.8744 28.613 27.0582 29.4289 26.2506 30.2249C26.1162 30.3575 25.897 30.3575 25.7625 30.2249L23.6204 28.1135C23.4859 27.9809 23.4859 27.7649 23.6204 27.6324C23.6872 27.5665 23.7758 27.5328 23.8644 27.5328C23.953 27.5328 24.0409 27.5657 24.1085 27.6324L25.5651 29.0681C25.6817 29.183 25.8402 29.2474 26.005 29.2474H26.0066C26.1721 29.2474 26.3307 29.1815 26.4473 29.0658L29.6162 25.9109C29.6799 25.8473 29.7654 25.812 29.8572 25.8113C29.9473 25.8074 30.0359 25.8457 30.1012 25.9101C30.2349 26.0411 30.2357 26.2564 30.102 26.3889H30.1012Z" fill="black"/>
</g>
<defs>
<clipPath id="clip0_607_778">
<rect width="34" height="38" fill="white"/>
</clipPath>
</defs>
</svg>
