<svg xmlns="http://www.w3.org/2000/svg" id="Layer_1" data-name="Layer 1" viewBox="0 0 79.41 16.14"><defs><style>      .cls-1 {        fill: #fff;      }    </style></defs><g><path class="cls-1" d="M13.96.48c-.58,0-1.01.49-1.01.49-.04.07-1.29,1.1-.79,1.56.14.1.29.18.46.23.08.05.17.07.27.07.32,0,.68-.21.68-.21.24-.05.7-.52.7-.52.23-.2.42-.44.55-.71.27-.46-.29-.74-.29-.74-.2-.12-.39-.17-.57-.17"></path><path class="cls-1" d="M25.65,1.06h-1.54l-1.33,4.23h1.47l.11-.53h1.05l.13.53h1.47l-1.36-4.23ZM24.62,3.76l.25-1.29h.05c.03.18.05.36.09.54l.16.75h-.56Z"></path></g><polygon class="cls-1" points="28.59 1.06 27.2 1.06 27.2 5.3 29.76 5.3 29.76 3.94 28.59 3.94 28.59 1.06"></polygon><polygon class="cls-1" points="32.64 1.06 29.72 1.06 29.72 2.44 30.49 2.4 30.49 5.3 31.88 5.3 31.88 2.4 32.64 2.44 32.64 1.06"></polygon><path class="cls-1" d="M34.66,1h-.02c-.83,0-1.66.56-1.66,1.57,0,.66.46,1.02,1,1.12l.28.06c.13.03.31.05.31.24s-.22.25-.36.25c-.33-.02-.63-.16-.87-.39l-.07-.06-.42,1.2c.45.25.95.38,1.47.39.83,0,1.66-.5,1.66-1.51,0-.72-.42-1.07-1.01-1.21l-.31-.08c-.11-.03-.28-.05-.28-.21,0-.17.18-.22.3-.22.3.02.58.13.81.32l.38-1.08c-.35-.24-.77-.37-1.2-.37"></path><polygon class="cls-1" points="39.8 1.06 38.46 1.06 38.46 2.49 37.6 2.49 37.6 1.06 36.27 1.06 36.27 5.3 37.6 5.3 37.6 3.83 38.46 3.83 38.46 5.3 39.8 5.3 39.8 1.06"></polygon><path class="cls-1" d="M43.73,1.06h-1.39v2.36c0,.33,0,.62-.38.62s-.38-.29-.38-.62V1.06h-1.39v2.5c0,1.24.7,1.8,1.77,1.8s1.77-.56,1.77-1.8V1.06Z"></path><polygon class="cls-1" points="45.53 1.06 44.14 1.06 44.14 5.3 46.7 5.3 46.7 3.94 45.53 3.94 45.53 1.06"></polygon><polygon class="cls-1" points="49.48 1.06 46.91 1.06 46.91 5.3 49.52 5.3 49.52 4.14 48.31 4.14 48.31 3.72 49.38 3.72 49.38 2.62 48.31 2.62 48.31 2.22 49.48 2.22 49.48 1.06"></polygon><g><path class="cls-1" d="M51.52,1.06h-1.68v4.23h1.36v-1.36h.03l.61,1.36h1.6l-.83-1.38c-.06-.1-.14-.18-.23-.25v-.03c.52-.19.74-.46.74-1.1,0-1.07-.73-1.47-1.59-1.47M51.2,2.94v-.72h.11c.24,0,.45.04.45.36,0,.31-.23.35-.46.35h-.1Z"></path><path class="cls-1" d="M56.73,1h-.02c-.83,0-1.66.56-1.66,1.57,0,.66.46,1.02,1,1.12l.28.06c.13.03.31.05.31.24s-.22.25-.35.25c-.33-.02-.63-.16-.87-.39l-.07-.06-.42,1.2c.45.25.95.38,1.47.39.83,0,1.66-.5,1.66-1.51,0-.72-.42-1.07-1.01-1.21l-.31-.08c-.11-.03-.28-.05-.28-.21,0-.17.18-.22.3-.22.3.02.58.13.81.32l.38-1.08c-.35-.24-.77-.37-1.2-.37"></path></g><polygon class="cls-1" points="61.86 1.06 60.52 1.06 60.52 2.49 59.67 2.49 59.67 1.06 58.33 1.06 58.33 5.3 59.67 5.3 59.67 3.83 60.52 3.83 60.52 5.3 61.86 5.3 61.86 1.06"></polygon><path class="cls-1" d="M64.85,1.06h-1.54l-1.33,4.23h1.47l.11-.53h1.05l.13.53h1.47l-1.36-4.23ZM63.82,3.76l.25-1.29h.05c.03.18.05.36.09.54l.16.75h-.56Z"></path><polygon class="cls-1" points="69.93 1.06 68.59 1.06 68.59 2.49 67.74 2.49 67.74 1.06 66.4 1.06 66.4 5.3 67.74 5.3 67.74 3.83 68.59 3.83 68.59 5.3 69.93 5.3 69.93 1.06"></polygon><g><path class="cls-1" d="M72.98,1.06h-1.54l-1.33,4.23h1.47l.11-.53h1.05l.13.53h1.47l-1.36-4.23ZM71.94,3.76l.25-1.29h.05c.03.18.05.37.09.55l.16.75h-.56Z"></path><path class="cls-1" d="M79.02,1.06h-1.42l-.43,1.66c-.04.19-.08.37-.1.56h-.04l-.53-2.22h-1.43l-.62,4.23h1.34l.16-1.81c.01-.17.03-.34.04-.51h.04c.01.18.04.35.09.53l.5,1.79h.81l.55-1.9c.04-.14.07-.28.09-.42h.03l.19,2.32h1.1v-1.64l-.39-2.59Z"></path><path class="cls-1" d="M60.82,14.28h0c-.09,0-.17.02-.25.05-.08.03-.15.08-.22.14-.06.06-.11.13-.14.21-.03.08-.05.17-.05.25s.02.17.05.25c.03.08.08.15.14.21.06.06.13.11.22.14.08.03.17.05.25.05s.18-.02.26-.05c.08-.03.15-.08.22-.14.06-.06.11-.13.14-.21.03-.08.05-.17.05-.25s-.02-.17-.05-.25c-.03-.08-.08-.15-.14-.21-.06-.06-.13-.11-.22-.14-.08-.03-.17-.05-.25-.05"></path><path class="cls-1" d="M39.56,14.28h0c-.09,0-.17.02-.25.05-.08.03-.15.08-.22.14-.06.06-.11.13-.14.21-.03.08-.05.17-.05.25s.02.17.05.25c.03.08.08.15.14.21.06.06.13.11.22.14.08.03.17.05.25.05s.17-.02.26-.05c.08-.03.15-.08.22-.14.06-.06.11-.13.14-.21.03-.08.05-.17.05-.25s-.02-.17-.05-.25c-.03-.08-.08-.15-.14-.21-.06-.06-.13-.11-.22-.14-.08-.03-.17-.05-.25-.05"></path><path class="cls-1" d="M64.26,13.22c-.64,0-1.1.27-1.1.81,0,.97,1.46.7,1.46,1.09,0,.12-.14.19-.35.19h0c-.08,0-.16-.02-.23-.06l-.09-.09-.05-.12h-.8c.02.46.45.85,1.12.85s1.19-.28,1.19-.87c0-.92-1.46-.69-1.46-1.07,0-.09.08-.14.26-.14h.01c.07,0,.14.02.2.05l.08.07.04.1h.79c-.06-.44-.38-.8-1.09-.8M24.18,13.23c-.71,0-1.27.51-1.27,1.33s.51,1.34,1.35,1.34h.08c.12,0,.24-.02.36-.05.14-.05.27-.12.39-.22.11-.1.2-.22.27-.35s.11-.28.12-.43h-.8c-.03.24-.16.43-.43.43-.42,0-.5-.33-.5-.69,0-.49.18-.74.47-.74h.03s.14.02.14.02l.15.09.1.14.04.17h.79c-.07-.65-.5-1.03-1.28-1.03M79.41,13.29h-.63v.88c-.07-.08-.15-.15-.25-.19-.08-.04-.17-.05-.26-.05h-.05c-.44,0-.78.4-.78,1.01,0,.52.28.94.84.94h.03c.1,0,.21-.02.3-.07.1-.05.18-.13.24-.23v.25h.56v-2.53ZM78.47,15.35c-.24,0-.29-.23-.29-.42,0-.2.07-.44.31-.44s.31.22.31.43-.08.43-.33.43M42.83,13.29h-.83v2.53h.83v-2.53ZM26.49,13.29h-.74v2.53h.74v-.94c0-.24.06-.38.29-.38.21,0,.26.16.26.35v.98h.73v-1.11c0-.51-.23-.79-.72-.79h-.02c-.1,0-.21.02-.3.07-.1.05-.18.12-.25.21v-.92ZM55.74,13.41h-.72v.57h-.27v.42h.26v.77c0,.53.08.66.66.66.12,0,.26,0,.42-.01v-.52h-.11c-.21,0-.23-.06-.23-.23v-.67h.35v-.42h-.35v-.57ZM76.06,13.93c-.11,0-.22.02-.33.06-.13.05-.25.12-.34.21s-.18.21-.23.33c-.05.12-.08.26-.08.39,0,.62.46.96,1.05.96.43,0,.9-.15,1.03-.61h-.7l-.11.12-.15.04h-.02l-.13-.03-.12-.08-.08-.12-.03-.14h1.4c.01-.67-.4-1.14-1.09-1.14h-.07ZM75.81,14.7l.02-.13.08-.11.11-.07h.1s.04-.01.04-.01c.08,0,.17.04.23.1.06.06.1.14.1.23h-.67ZM73.7,13.93c-.11,0-.22.02-.33.06-.13.05-.25.12-.34.21-.1.09-.18.21-.23.33-.05.12-.08.26-.08.39,0,.62.46.96,1.05.96.43,0,.9-.15,1.03-.61h-.7l-.11.12-.15.04h-.02l-.13-.03-.12-.08-.08-.12-.03-.14h1.4c.01-.67-.4-1.14-1.09-1.14h-.07ZM73.45,14.7l.02-.13.07-.11.11-.07.1-.02h.04c.08,0,.17.04.23.1.06.06.1.14.1.23h-.67ZM57.36,13.93c-.11,0-.23.02-.33.06-.13.05-.24.12-.34.21-.1.09-.18.21-.23.33-.05.12-.08.26-.07.39,0,.62.46.96,1.05.96.43,0,.9-.15,1.03-.61h-.7l-.11.12-.15.04h-.02l-.13-.03-.12-.08-.08-.12-.03-.14h1.4c.01-.67-.4-1.14-1.09-1.14h-.07ZM57.11,14.7l.02-.13.07-.11.12-.07h.09s.04-.01.04-.01c.08,0,.17.04.23.1.06.06.1.14.1.23h-.67ZM36.1,13.93c-.11,0-.23.02-.33.06-.13.05-.24.12-.34.21-.1.09-.18.21-.23.33-.05.12-.08.26-.08.39,0,.62.46.96,1.05.96.43,0,.9-.15,1.03-.61h-.7l-.11.12-.15.04h-.02l-.14-.03-.12-.08-.08-.12-.03-.14h1.4c0-.67-.4-1.14-1.09-1.14h-.07ZM35.86,14.7l.02-.13.08-.11.11-.07h.1s.04-.01.04-.01c.08,0,.17.04.23.1.06.06.1.14.1.23h-.67ZM71.42,13.93c-.61,0-1.06.36-1.06.99s.46.96,1.06.96c.51,0,.96-.21,1.03-.77h-.74l-.02.11-.06.09-.09.06-.1.02h0c-.22,0-.32-.18-.32-.46,0-.22.05-.5.32-.5h.01s.09.02.09.02l.09.06c.05.05.08.12.08.19h.75c-.05-.55-.52-.76-1.01-.76M69.07,13.93c-.61,0-1.06.36-1.06.99s.46.96,1.06.96c.51,0,.96-.21,1.03-.77h-.74l-.02.11-.06.09-.09.06-.1.02h0c-.21,0-.32-.18-.32-.46,0-.22.04-.5.32-.5h.01s.09.02.09.02l.09.06c.05.05.08.12.08.19h.75c-.05-.55-.52-.76-1.01-.76M53.55,13.93c-.73,0-1.01.23-1.01.62h.71c.02-.16.16-.18.26-.18.08,0,.24.02.24.15,0,.35-1.32-.03-1.32.8,0,.38.31.56.66.56h.06c.11,0,.21-.02.31-.05.12-.04.23-.11.32-.2l.04.2h.76v-.04l-.08-.1-.02-.13v-.86c0-.44-.05-.76-.93-.76M53.42,15.46c-.15,0-.23-.06-.23-.16,0-.24.32-.18.56-.3.02.25-.07.45-.33.45h0ZM49,13.93c-.63,0-1.05.36-1.05,1h0c0,.63.46.95,1.05.95s1.05-.32,1.05-.99c0-.57-.4-.96-1.06-.96M49,15.39c-.19,0-.32-.15-.32-.5,0-.21.07-.46.33-.46h.01c.18,0,.3.2.3.46,0,.35-.12.5-.32.5M46.93,13.93h0c-.12,0-.24.03-.35.09-.11.06-.2.15-.27.25v-.29h-.67v1.85s.73,0,.73,0v-.94c0-.24.06-.38.29-.38.21,0,.26.16.26.35v.98h.74v-1.11c0-.51-.23-.79-.72-.79M44.57,13.93h0c-.12,0-.24.03-.35.09-.11.06-.2.15-.27.25v-.29h-.67v1.85s.73,0,.73,0v-.94c0-.24.06-.38.29-.38.21,0,.26.16.26.35v.98h.74v-1.11c0-.51-.23-.79-.72-.79M33.6,13.93c-.61,0-.83.48-.83.94,0,.11,0,.22.04.33.04.11.09.2.17.28.08.08.17.15.27.19.1.05.21.07.32.07h.04c.09,0,.17-.01.25-.05.09-.03.17-.09.24-.15v.15c0,.26-.09.36-.3.36h-.02s-.14-.04-.14-.04l-.03-.04v-.04s-.75,0-.75,0c.01.08.04.15.09.22h1.72c.11-.18.13-.41.13-.68v-1.48h-.65v.24c-.06-.09-.15-.16-.24-.21-.1-.05-.21-.08-.32-.08M33.8,15.23c-.2,0-.29-.18-.29-.36,0-.24.07-.42.28-.42h0c.23,0,.31.19.31.4,0,.19-.08.38-.29.38h-.02ZM31.76,13.93h0c-.12,0-.24.03-.35.09-.11.06-.2.15-.27.25v-.29h-.67v1.84s.73,0,.73,0v-.94c0-.24.06-.38.29-.38.21,0,.26.16.26.35v.98h.74v-1.11c0-.51-.23-.79-.72-.79M29.15,13.93c-.73,0-1.01.23-1.01.62h.71c.02-.16.16-.18.26-.18.08,0,.24.02.24.15,0,.35-1.32-.03-1.32.8,0,.38.31.56.66.56h.06c.11,0,.21-.02.31-.05.12-.04.23-.11.32-.2l.03.2h.76v-.04l-.08-.1v-.13s-.01-.86-.01-.86c0-.44-.05-.76-.93-.76M29.02,15.46c-.15,0-.23-.06-.23-.16,0-.24.32-.18.56-.3.02.25-.07.45-.33.45h0ZM52.3,13.98h-.71l-.32,1.17-.32-1.16h-.74l.64,1.84h.82l.62-1.84ZM67.72,13.98h-.73v.89c0,.29-.07.44-.28.44-.18,0-.26-.08-.26-.33v-1h-.73v1.12c0,.53.26.77.66.77h.07c.11,0,.21-.02.31-.07.12-.06.22-.15.29-.26v.27h.68v-1.85Z"></path><path class="cls-1" d="M78.18,7.89c-.29,0-.58.1-.81.28-.1.09-.18.19-.23.31-.05.12-.08.25-.08.38-.01.13.01.26.07.38s.14.22.24.29c.21.12.44.2.68.24l.34.08c.15.02.3.07.43.14l.1.1.04.14c0,.08-.03.16-.08.23-.05.07-.12.11-.2.13-.11.03-.23.05-.35.05h-.11c-.08,0-.15,0-.23-.03-.1-.03-.18-.09-.26-.16-.07-.09-.11-.2-.12-.32h-.62c0,.14.02.29.08.42s.15.25.27.34c.26.18.57.28.88.28h.09s.09,0,.09,0c.3,0,.6-.1.84-.28.06-.05.11-.1.15-.16v-1.08s-.06-.07-.1-.1c-.16-.11-.35-.19-.54-.23l-.55-.13c-.14-.03-.28-.07-.41-.13l-.11-.1-.04-.15.04-.16.12-.12c.11-.07.24-.1.38-.1h.04s.03,0,.03,0c.12,0,.25.03.36.08.07.04.14.09.18.16.04.07.07.15.07.23h.55v-.39s-.01-.02-.01-.03c-.06-.13-.16-.24-.28-.33-.24-.17-.52-.26-.81-.26h-.13ZM55.03,7.89c-.29,0-.58.1-.81.28-.1.09-.18.19-.23.31-.05.12-.08.25-.08.38,0,.13.01.26.07.38.06.12.14.22.25.29.21.12.44.2.68.24l.34.07c.15.03.3.08.43.14l.1.1.03.14c0,.08-.02.16-.08.23-.05.07-.12.11-.2.13-.11.03-.23.05-.35.05h-.11c-.08,0-.15,0-.23-.03-.1-.03-.18-.09-.26-.16-.07-.09-.11-.2-.12-.32h-.62c0,.14.02.29.08.42.06.13.15.25.27.34.26.18.57.28.88.28h.09s.09,0,.09,0c.3,0,.6-.1.84-.28.11-.09.19-.19.25-.32.06-.12.08-.26.08-.39,0-.12-.01-.24-.06-.35s-.12-.21-.22-.28c-.16-.11-.34-.19-.54-.23l-.55-.13c-.14-.03-.28-.07-.41-.13l-.11-.1-.04-.15.04-.16.11-.12c.12-.07.24-.1.38-.1h.04s.03,0,.03,0c.12,0,.25.03.36.08.08.04.14.09.18.16.04.07.07.15.07.23h.63c0-.15-.03-.29-.09-.42-.06-.13-.16-.24-.28-.33-.24-.17-.52-.26-.81-.26h-.13ZM71.3,7.92h-.1s-.04,0-.04,0c-.16,0-.33.03-.48.09-.17.07-.31.16-.44.29-.15.17-.27.37-.34.58-.07.21-.11.44-.09.67h0c-.03.43.11.85.38,1.18.13.14.29.26.47.33.16.07.33.1.5.1h.07s.05,0,.05,0c.31,0,.6-.11.83-.32.23-.22.38-.51.43-.83h-.65c-.03.13-.08.25-.16.36-.06.08-.14.13-.23.17-.08.03-.16.05-.25.05h-.04s0,0,0,0c-.1,0-.2-.02-.29-.07-.09-.05-.18-.11-.24-.19-.16-.23-.23-.5-.21-.78-.02-.28.05-.56.2-.81.06-.09.14-.16.24-.21.09-.05.19-.07.29-.07h.07c.08,0,.16.01.23.04.09.03.17.09.24.16.07.1.13.22.16.34h.65c-.01-.21-.09-.41-.21-.58-.13-.17-.3-.31-.5-.4-.17-.08-.35-.11-.53-.11M40.84,7.92h-.1s-.04,0-.04,0c-.16,0-.33.03-.48.09-.16.07-.31.16-.44.29-.15.17-.27.37-.34.58-.08.21-.1.44-.09.67h0c-.03.43.11.85.38,1.18.13.14.29.26.47.33.16.07.33.1.5.1h.07s.05,0,.05,0c.31,0,.6-.11.83-.32.23-.22.38-.51.43-.82h-.65c-.03.13-.08.25-.16.36-.06.08-.14.13-.23.17-.08.03-.16.05-.24.05h-.04s-.01,0-.01,0c-.1,0-.2-.02-.29-.07-.09-.05-.17-.11-.24-.19-.16-.23-.23-.51-.21-.78-.02-.28.05-.56.2-.81.06-.09.14-.16.24-.21.09-.05.19-.07.29-.07h.02s.05,0,.05,0c.08,0,.16.01.23.04.09.03.17.09.24.16.08.1.13.21.16.34h.65c-.02-.21-.09-.41-.21-.58-.13-.17-.3-.31-.5-.4-.17-.08-.35-.12-.53-.12M68.73,7.99h-.65v3.1h.65v-3.1ZM62.53,7.99h-1.52v3.1h.63v-1.22h.69c.11,0,.22.03.31.1.08.12.12.26.1.39v.29c0,.09.01.18.03.27,0,.04.02.1.04.17h.72v-.08l-.08-.08-.04-.1c-.02-.09-.02-.19-.02-.29v-.21c.01-.17-.02-.33-.09-.49-.07-.11-.18-.2-.3-.24.16-.05.29-.16.37-.3.07-.13.11-.28.11-.43,0-.11-.02-.22-.06-.33-.04-.09-.09-.18-.16-.26-.08-.09-.18-.17-.29-.22-.15-.05-.3-.08-.46-.08M61.64,9.36v-.83h.76c.09,0,.18.02.26.05.06.04.11.1.14.16.03.07.04.14.03.22,0,.07,0,.14-.04.2l-.15.15c-.09.03-.18.05-.27.05h-.74ZM75.97,7.99h-2.28v3.1h2.36v-.56h-1.72v-.8h1.51v-.54h-1.51v-.66h1.65v-.55ZM67.14,7.99h-.68l-.68,2.36-.68-2.36h-.69l1.05,3.1h.61l1.06-3.1ZM59.8,7.99h-2.28v3.1h2.36v-.56h-1.72v-.8h1.51v-.54h-1.51v-.66h1.65v-.55ZM49.39,7.99h-.65v3.1h2.2v-.56h-1.55v-2.54ZM46.64,7.99h-.74l-1.11,3.1h.68l.21-.64h1.15l.21.64h.7l-1.1-3.1ZM45.86,9.92l.41-1.22.39,1.22h-.8ZM43.8,7.99h-.65v3.1h.65v-3.1ZM38.26,7.99h-.6v2.16l-1.24-2.16h-.68v3.1h.61v-2.2l1.27,2.2h.65v-3.1ZM33.65,7.99h-.74l-1.11,3.1h.68l.21-.64h1.15l.21.64h.71l-1.1-3.1ZM32.87,9.92l.4-1.22.39,1.22h-.8ZM30.81,7.99h-.61v2.16l-1.24-2.16h-.68v3.1h.61v-2.2l1.27,2.2h.65v-3.1ZM27.08,7.99h-.65v3.1h.65v-3.1ZM25.46,7.99h-2.22v3.1h.65v-1.3h1.38v-.54h-1.38v-.71h1.57v-.55Z"></path><path class="cls-1" d="M21.4,0c-.9,0-6.09,5.49-6.49,5.55h-.05c-.45,0-.98-.87-1.97-1.02h-.15c-1.19-.01-2.71,2.02-4.58,4.47-.14.19-.25.26-.34.26-.17,0-.29-.26-.58-.52-.29-.26-.74-.52-1.56-.52-.14,0-.3,0-.47.03-.99.1-2.6,2.09-4.4,4.77-.59.87-.81,1.54-.82,2.05v.06c0,.47.21.8.48,1.01h1.53c1.36-1.28,3-5.74,4.08-5.74.11,0,.22.05.32.16.75.81,1.38,1.13,1.92,1.13,2.12,0,2.97-4.91,4.51-5.45h.08c.24-.01.54.37.89.75.35.38.76.76,1.24.76.33,0,.69-.18,1.09-.66.66-.79,1.33-2,2.28-3.2,1.12-1.41,2.96-3.1,3.07-3.46.1-.3.06-.43-.08-.43"></path></g><g><path class="cls-1" d="M13.96.48c-.58,0-1.01.49-1.01.49-.04.07-1.29,1.1-.79,1.56.14.1.29.18.46.23.08.05.17.07.27.07.32,0,.68-.21.68-.21.24-.05.7-.52.7-.52.23-.2.42-.44.55-.71.27-.46-.29-.74-.29-.74-.2-.12-.39-.17-.57-.17"></path><path class="cls-1" d="M25.65,1.06h-1.54l-1.33,4.23h1.47l.11-.53h1.05l.13.53h1.47l-1.36-4.23ZM24.62,3.76l.25-1.29h.05c.03.18.05.36.09.54l.16.75h-.56Z"></path></g><polygon class="cls-1" points="28.59 1.06 27.2 1.06 27.2 5.3 29.76 5.3 29.76 3.94 28.59 3.94 28.59 1.06"></polygon><polygon class="cls-1" points="32.64 1.06 29.72 1.06 29.72 2.44 30.49 2.4 30.49 5.3 31.88 5.3 31.88 2.4 32.64 2.44 32.64 1.06"></polygon><path class="cls-1" d="M34.66,1h-.02c-.83,0-1.66.56-1.66,1.57,0,.66.46,1.02,1,1.12l.28.06c.13.03.31.05.31.24s-.22.25-.36.25c-.33-.02-.63-.16-.87-.39l-.07-.06-.42,1.2c.45.25.95.38,1.47.39.83,0,1.66-.5,1.66-1.51,0-.72-.42-1.07-1.01-1.21l-.31-.08c-.11-.03-.28-.05-.28-.21,0-.17.18-.22.3-.22.3.02.58.13.81.32l.38-1.08c-.35-.24-.77-.37-1.2-.37"></path><polygon class="cls-1" points="39.8 1.06 38.46 1.06 38.46 2.49 37.6 2.49 37.6 1.06 36.27 1.06 36.27 5.3 37.6 5.3 37.6 3.83 38.46 3.83 38.46 5.3 39.8 5.3 39.8 1.06"></polygon><path class="cls-1" d="M43.73,1.06h-1.39v2.36c0,.33,0,.62-.38.62s-.38-.29-.38-.62V1.06h-1.39v2.5c0,1.24.7,1.8,1.77,1.8s1.77-.56,1.77-1.8V1.06Z"></path><polygon class="cls-1" points="45.53 1.06 44.14 1.06 44.14 5.3 46.7 5.3 46.7 3.94 45.53 3.94 45.53 1.06"></polygon><polygon class="cls-1" points="49.48 1.06 46.91 1.06 46.91 5.3 49.52 5.3 49.52 4.14 48.31 4.14 48.31 3.72 49.38 3.72 49.38 2.62 48.31 2.62 48.31 2.22 49.48 2.22 49.48 1.06"></polygon><g><path class="cls-1" d="M51.52,1.06h-1.68v4.23h1.36v-1.36h.03l.61,1.36h1.6l-.83-1.38c-.06-.1-.14-.18-.23-.25v-.03c.52-.19.74-.46.74-1.1,0-1.07-.73-1.47-1.59-1.47M51.2,2.94v-.72h.11c.24,0,.45.04.45.36,0,.31-.23.35-.46.35h-.1Z"></path><path class="cls-1" d="M56.73,1h-.02c-.83,0-1.66.56-1.66,1.57,0,.66.46,1.02,1,1.12l.28.06c.13.03.31.05.31.24s-.22.25-.35.25c-.33-.02-.63-.16-.87-.39l-.07-.06-.42,1.2c.45.25.95.38,1.47.39.83,0,1.66-.5,1.66-1.51,0-.72-.42-1.07-1.01-1.21l-.31-.08c-.11-.03-.28-.05-.28-.21,0-.17.18-.22.3-.22.3.02.58.13.81.32l.38-1.08c-.35-.24-.77-.37-1.2-.37"></path></g><polygon class="cls-1" points="61.86 1.06 60.52 1.06 60.52 2.49 59.67 2.49 59.67 1.06 58.33 1.06 58.33 5.3 59.67 5.3 59.67 3.83 60.52 3.83 60.52 5.3 61.86 5.3 61.86 1.06"></polygon><path class="cls-1" d="M64.85,1.06h-1.54l-1.33,4.23h1.47l.11-.53h1.05l.13.53h1.47l-1.36-4.23ZM63.82,3.76l.25-1.29h.05c.03.18.05.36.09.54l.16.75h-.56Z"></path><polygon class="cls-1" points="69.93 1.06 68.59 1.06 68.59 2.49 67.74 2.49 67.74 1.06 66.4 1.06 66.4 5.3 67.74 5.3 67.74 3.83 68.59 3.83 68.59 5.3 69.93 5.3 69.93 1.06"></polygon><g><path class="cls-1" d="M72.98,1.06h-1.54l-1.33,4.23h1.47l.11-.53h1.05l.13.53h1.47l-1.36-4.23ZM71.94,3.76l.25-1.29h.05c.03.18.05.37.09.55l.16.75h-.56Z"></path><path class="cls-1" d="M79.02,1.06h-1.42l-.43,1.66c-.04.19-.08.37-.1.56h-.04l-.53-2.22h-1.43l-.62,4.23h1.34l.16-1.81c.01-.17.03-.34.04-.51h.04c.01.18.04.35.09.53l.5,1.79h.81l.55-1.9c.04-.14.07-.28.09-.42h.03l.19,2.32h1.1v-1.64l-.39-2.59Z"></path><path class="cls-1" d="M60.82,14.28h0c-.09,0-.17.02-.25.05-.08.03-.15.08-.22.14-.06.06-.11.13-.14.21-.03.08-.05.17-.05.25s.02.17.05.25c.03.08.08.15.14.21.06.06.13.11.22.14.08.03.17.05.25.05s.18-.02.26-.05c.08-.03.15-.08.22-.14.06-.06.11-.13.14-.21.03-.08.05-.17.05-.25s-.02-.17-.05-.25c-.03-.08-.08-.15-.14-.21-.06-.06-.13-.11-.22-.14-.08-.03-.17-.05-.25-.05"></path><path class="cls-1" d="M39.56,14.28h0c-.09,0-.17.02-.25.05-.08.03-.15.08-.22.14-.06.06-.11.13-.14.21-.03.08-.05.17-.05.25s.02.17.05.25c.03.08.08.15.14.21.06.06.13.11.22.14.08.03.17.05.25.05s.17-.02.26-.05c.08-.03.15-.08.22-.14.06-.06.11-.13.14-.21.03-.08.05-.17.05-.25s-.02-.17-.05-.25c-.03-.08-.08-.15-.14-.21-.06-.06-.13-.11-.22-.14-.08-.03-.17-.05-.25-.05"></path><path class="cls-1" d="M64.26,13.22c-.64,0-1.1.27-1.1.81,0,.97,1.46.7,1.46,1.09,0,.12-.14.19-.35.19h0c-.08,0-.16-.02-.23-.06l-.09-.09-.05-.12h-.8c.02.46.45.85,1.12.85s1.19-.28,1.19-.87c0-.92-1.46-.69-1.46-1.07,0-.09.08-.14.26-.14h.01c.07,0,.14.02.2.05l.08.07.04.1h.79c-.06-.44-.38-.8-1.09-.8M24.18,13.23c-.71,0-1.27.51-1.27,1.33s.51,1.34,1.35,1.34h.08c.12,0,.24-.02.36-.05.14-.05.27-.12.39-.22.11-.1.2-.22.27-.35s.11-.28.12-.43h-.8c-.03.24-.16.43-.43.43-.42,0-.5-.33-.5-.69,0-.49.18-.74.47-.74h.03s.14.02.14.02l.15.09.1.14.04.17h.79c-.07-.65-.5-1.03-1.28-1.03M79.41,13.29h-.63v.88c-.07-.08-.15-.15-.25-.19-.08-.04-.17-.05-.26-.05h-.05c-.44,0-.78.4-.78,1.01,0,.52.28.94.84.94h.03c.1,0,.21-.02.3-.07.1-.05.18-.13.24-.23v.25h.56v-2.53ZM78.47,15.35c-.24,0-.29-.23-.29-.42,0-.2.07-.44.31-.44s.31.22.31.43-.08.43-.33.43M42.83,13.29h-.83v2.53h.83v-2.53ZM26.49,13.29h-.74v2.53h.74v-.94c0-.24.06-.38.29-.38.21,0,.26.16.26.35v.98h.73v-1.11c0-.51-.23-.79-.72-.79h-.02c-.1,0-.21.02-.3.07-.1.05-.18.12-.25.21v-.92ZM55.74,13.41h-.72v.57h-.27v.42h.26v.77c0,.53.08.66.66.66.12,0,.26,0,.42-.01v-.52h-.11c-.21,0-.23-.06-.23-.23v-.67h.35v-.42h-.35v-.57ZM76.06,13.93c-.11,0-.22.02-.33.06-.13.05-.25.12-.34.21s-.18.21-.23.33c-.05.12-.08.26-.08.39,0,.62.46.96,1.05.96.43,0,.9-.15,1.03-.61h-.7l-.11.12-.15.04h-.02l-.13-.03-.12-.08-.08-.12-.03-.14h1.4c.01-.67-.4-1.14-1.09-1.14h-.07ZM75.81,14.7l.02-.13.08-.11.11-.07h.1s.04-.01.04-.01c.08,0,.17.04.23.1.06.06.1.14.1.23h-.67ZM73.7,13.93c-.11,0-.22.02-.33.06-.13.05-.25.12-.34.21-.1.09-.18.21-.23.33-.05.12-.08.26-.08.39,0,.62.46.96,1.05.96.43,0,.9-.15,1.03-.61h-.7l-.11.12-.15.04h-.02l-.13-.03-.12-.08-.08-.12-.03-.14h1.4c.01-.67-.4-1.14-1.09-1.14h-.07ZM73.45,14.7l.02-.13.07-.11.11-.07.1-.02h.04c.08,0,.17.04.23.1.06.06.1.14.1.23h-.67ZM57.36,13.93c-.11,0-.23.02-.33.06-.13.05-.24.12-.34.21-.1.09-.18.21-.23.33-.05.12-.08.26-.07.39,0,.62.46.96,1.05.96.43,0,.9-.15,1.03-.61h-.7l-.11.12-.15.04h-.02l-.13-.03-.12-.08-.08-.12-.03-.14h1.4c.01-.67-.4-1.14-1.09-1.14h-.07ZM57.11,14.7l.02-.13.07-.11.12-.07h.09s.04-.01.04-.01c.08,0,.17.04.23.1.06.06.1.14.1.23h-.67ZM36.1,13.93c-.11,0-.23.02-.33.06-.13.05-.24.12-.34.21-.1.09-.18.21-.23.33-.05.12-.08.26-.08.39,0,.62.46.96,1.05.96.43,0,.9-.15,1.03-.61h-.7l-.11.12-.15.04h-.02l-.14-.03-.12-.08-.08-.12-.03-.14h1.4c0-.67-.4-1.14-1.09-1.14h-.07ZM35.86,14.7l.02-.13.08-.11.11-.07h.1s.04-.01.04-.01c.08,0,.17.04.23.1.06.06.1.14.1.23h-.67ZM71.42,13.93c-.61,0-1.06.36-1.06.99s.46.96,1.06.96c.51,0,.96-.21,1.03-.77h-.74l-.02.11-.06.09-.09.06-.1.02h0c-.22,0-.32-.18-.32-.46,0-.22.05-.5.32-.5h.01s.09.02.09.02l.09.06c.05.05.08.12.08.19h.75c-.05-.55-.52-.76-1.01-.76M69.07,13.93c-.61,0-1.06.36-1.06.99s.46.96,1.06.96c.51,0,.96-.21,1.03-.77h-.74l-.02.11-.06.09-.09.06-.1.02h0c-.21,0-.32-.18-.32-.46,0-.22.04-.5.32-.5h.01s.09.02.09.02l.09.06c.05.05.08.12.08.19h.75c-.05-.55-.52-.76-1.01-.76M53.55,13.93c-.73,0-1.01.23-1.01.62h.71c.02-.16.16-.18.26-.18.08,0,.24.02.24.15,0,.35-1.32-.03-1.32.8,0,.38.31.56.66.56h.06c.11,0,.21-.02.31-.05.12-.04.23-.11.32-.2l.04.2h.76v-.04l-.08-.1-.02-.13v-.86c0-.44-.05-.76-.93-.76M53.42,15.46c-.15,0-.23-.06-.23-.16,0-.24.32-.18.56-.3.02.25-.07.45-.33.45h0ZM49,13.93c-.63,0-1.05.36-1.05,1h0c0,.63.46.95,1.05.95s1.05-.32,1.05-.99c0-.57-.4-.96-1.06-.96M49,15.39c-.19,0-.32-.15-.32-.5,0-.21.07-.46.33-.46h.01c.18,0,.3.2.3.46,0,.35-.12.5-.32.5M46.93,13.93h0c-.12,0-.24.03-.35.09-.11.06-.2.15-.27.25v-.29h-.67v1.85s.73,0,.73,0v-.94c0-.24.06-.38.29-.38.21,0,.26.16.26.35v.98h.74v-1.11c0-.51-.23-.79-.72-.79M44.57,13.93h0c-.12,0-.24.03-.35.09-.11.06-.2.15-.27.25v-.29h-.67v1.85s.73,0,.73,0v-.94c0-.24.06-.38.29-.38.21,0,.26.16.26.35v.98h.74v-1.11c0-.51-.23-.79-.72-.79M33.6,13.93c-.61,0-.83.48-.83.94,0,.11,0,.22.04.33.04.11.09.2.17.28.08.08.17.15.27.19.1.05.21.07.32.07h.04c.09,0,.17-.01.25-.05.09-.03.17-.09.24-.15v.15c0,.26-.09.36-.3.36h-.02s-.14-.04-.14-.04l-.03-.04v-.04s-.75,0-.75,0c.01.08.04.15.09.22h1.72c.11-.18.13-.41.13-.68v-1.48h-.65v.24c-.06-.09-.15-.16-.24-.21-.1-.05-.21-.08-.32-.08M33.8,15.23c-.2,0-.29-.18-.29-.36,0-.24.07-.42.28-.42h0c.23,0,.31.19.31.4,0,.19-.08.38-.29.38h-.02ZM31.76,13.93h0c-.12,0-.24.03-.35.09-.11.06-.2.15-.27.25v-.29h-.67v1.84s.73,0,.73,0v-.94c0-.24.06-.38.29-.38.21,0,.26.16.26.35v.98h.74v-1.11c0-.51-.23-.79-.72-.79M29.15,13.93c-.73,0-1.01.23-1.01.62h.71c.02-.16.16-.18.26-.18.08,0,.24.02.24.15,0,.35-1.32-.03-1.32.8,0,.38.31.56.66.56h.06c.11,0,.21-.02.31-.05.12-.04.23-.11.32-.2l.03.2h.76v-.04l-.08-.1v-.13s-.01-.86-.01-.86c0-.44-.05-.76-.93-.76M29.02,15.46c-.15,0-.23-.06-.23-.16,0-.24.32-.18.56-.3.02.25-.07.45-.33.45h0ZM52.3,13.98h-.71l-.32,1.17-.32-1.16h-.74l.64,1.84h.82l.62-1.84ZM67.72,13.98h-.73v.89c0,.29-.07.44-.28.44-.18,0-.26-.08-.26-.33v-1h-.73v1.12c0,.53.26.77.66.77h.07c.11,0,.21-.02.31-.07.12-.06.22-.15.29-.26v.27h.68v-1.85Z"></path><path class="cls-1" d="M78.18,7.89c-.29,0-.58.1-.81.28-.1.09-.18.19-.23.31-.05.12-.08.25-.08.38-.01.13.01.26.07.38s.14.22.24.29c.21.12.44.2.68.24l.34.08c.15.02.3.07.43.14l.1.1.04.14c0,.08-.03.16-.08.23-.05.07-.12.11-.2.13-.11.03-.23.05-.35.05h-.11c-.08,0-.15,0-.23-.03-.1-.03-.18-.09-.26-.16-.07-.09-.11-.2-.12-.32h-.62c0,.14.02.29.08.42s.15.25.27.34c.26.18.57.28.88.28h.09s.09,0,.09,0c.3,0,.6-.1.84-.28.06-.05.11-.1.15-.16v-1.08s-.06-.07-.1-.1c-.16-.11-.35-.19-.54-.23l-.55-.13c-.14-.03-.28-.07-.41-.13l-.11-.1-.04-.15.04-.16.12-.12c.11-.07.24-.1.38-.1h.04s.03,0,.03,0c.12,0,.25.03.36.08.07.04.14.09.18.16.04.07.07.15.07.23h.55v-.39s-.01-.02-.01-.03c-.06-.13-.16-.24-.28-.33-.24-.17-.52-.26-.81-.26h-.13ZM55.03,7.89c-.29,0-.58.1-.81.28-.1.09-.18.19-.23.31-.05.12-.08.25-.08.38,0,.13.01.26.07.38.06.12.14.22.25.29.21.12.44.2.68.24l.34.07c.15.03.3.08.43.14l.1.1.03.14c0,.08-.02.16-.08.23-.05.07-.12.11-.2.13-.11.03-.23.05-.35.05h-.11c-.08,0-.15,0-.23-.03-.1-.03-.18-.09-.26-.16-.07-.09-.11-.2-.12-.32h-.62c0,.14.02.29.08.42.06.13.15.25.27.34.26.18.57.28.88.28h.09s.09,0,.09,0c.3,0,.6-.1.84-.28.11-.09.19-.19.25-.32.06-.12.08-.26.08-.39,0-.12-.01-.24-.06-.35s-.12-.21-.22-.28c-.16-.11-.34-.19-.54-.23l-.55-.13c-.14-.03-.28-.07-.41-.13l-.11-.1-.04-.15.04-.16.11-.12c.12-.07.24-.1.38-.1h.04s.03,0,.03,0c.12,0,.25.03.36.08.08.04.14.09.18.16.04.07.07.15.07.23h.63c0-.15-.03-.29-.09-.42-.06-.13-.16-.24-.28-.33-.24-.17-.52-.26-.81-.26h-.13ZM71.3,7.92h-.1s-.04,0-.04,0c-.16,0-.33.03-.48.09-.17.07-.31.16-.44.29-.15.17-.27.37-.34.58-.07.21-.11.44-.09.67h0c-.03.43.11.85.38,1.18.13.14.29.26.47.33.16.07.33.1.5.1h.07s.05,0,.05,0c.31,0,.6-.11.83-.32.23-.22.38-.51.43-.83h-.65c-.03.13-.08.25-.16.36-.06.08-.14.13-.23.17-.08.03-.16.05-.25.05h-.04s0,0,0,0c-.1,0-.2-.02-.29-.07-.09-.05-.18-.11-.24-.19-.16-.23-.23-.5-.21-.78-.02-.28.05-.56.2-.81.06-.09.14-.16.24-.21.09-.05.19-.07.29-.07h.07c.08,0,.16.01.23.04.09.03.17.09.24.16.07.1.13.22.16.34h.65c-.01-.21-.09-.41-.21-.58-.13-.17-.3-.31-.5-.4-.17-.08-.35-.11-.53-.11M40.84,7.92h-.1s-.04,0-.04,0c-.16,0-.33.03-.48.09-.16.07-.31.16-.44.29-.15.17-.27.37-.34.58-.08.21-.1.44-.09.67h0c-.03.43.11.85.38,1.18.13.14.29.26.47.33.16.07.33.1.5.1h.07s.05,0,.05,0c.31,0,.6-.11.83-.32.23-.22.38-.51.43-.82h-.65c-.03.13-.08.25-.16.36-.06.08-.14.13-.23.17-.08.03-.16.05-.24.05h-.04s-.01,0-.01,0c-.1,0-.2-.02-.29-.07-.09-.05-.17-.11-.24-.19-.16-.23-.23-.51-.21-.78-.02-.28.05-.56.2-.81.06-.09.14-.16.24-.21.09-.05.19-.07.29-.07h.02s.05,0,.05,0c.08,0,.16.01.23.04.09.03.17.09.24.16.08.1.13.21.16.34h.65c-.02-.21-.09-.41-.21-.58-.13-.17-.3-.31-.5-.4-.17-.08-.35-.12-.53-.12M68.73,7.99h-.65v3.1h.65v-3.1ZM62.53,7.99h-1.52v3.1h.63v-1.22h.69c.11,0,.22.03.31.1.08.12.12.26.1.39v.29c0,.09.01.18.03.27,0,.04.02.1.04.17h.72v-.08l-.08-.08-.04-.1c-.02-.09-.02-.19-.02-.29v-.21c.01-.17-.02-.33-.09-.49-.07-.11-.18-.2-.3-.24.16-.05.29-.16.37-.3.07-.13.11-.28.11-.43,0-.11-.02-.22-.06-.33-.04-.09-.09-.18-.16-.26-.08-.09-.18-.17-.29-.22-.15-.05-.3-.08-.46-.08M61.64,9.36v-.83h.76c.09,0,.18.02.26.05.06.04.11.1.14.16.03.07.04.14.03.22,0,.07,0,.14-.04.2l-.15.15c-.09.03-.18.05-.27.05h-.74ZM75.97,7.99h-2.28v3.1h2.36v-.56h-1.72v-.8h1.51v-.54h-1.51v-.66h1.65v-.55ZM67.14,7.99h-.68l-.68,2.36-.68-2.36h-.69l1.05,3.1h.61l1.06-3.1ZM59.8,7.99h-2.28v3.1h2.36v-.56h-1.72v-.8h1.51v-.54h-1.51v-.66h1.65v-.55ZM49.39,7.99h-.65v3.1h2.2v-.56h-1.55v-2.54ZM46.64,7.99h-.74l-1.11,3.1h.68l.21-.64h1.15l.21.64h.7l-1.1-3.1ZM45.86,9.92l.41-1.22.39,1.22h-.8ZM43.8,7.99h-.65v3.1h.65v-3.1ZM38.26,7.99h-.6v2.16l-1.24-2.16h-.68v3.1h.61v-2.2l1.27,2.2h.65v-3.1ZM33.65,7.99h-.74l-1.11,3.1h.68l.21-.64h1.15l.21.64h.71l-1.1-3.1ZM32.87,9.92l.4-1.22.39,1.22h-.8ZM30.81,7.99h-.61v2.16l-1.24-2.16h-.68v3.1h.61v-2.2l1.27,2.2h.65v-3.1ZM27.08,7.99h-.65v3.1h.65v-3.1ZM25.46,7.99h-2.22v3.1h.65v-1.3h1.38v-.54h-1.38v-.71h1.57v-.55Z"></path><path class="cls-1" d="M21.4,0c-.9,0-6.09,5.49-6.49,5.55h-.05c-.45,0-.98-.87-1.97-1.02h-.15c-1.19-.01-2.71,2.02-4.58,4.47-.14.19-.25.26-.34.26-.17,0-.29-.26-.58-.52-.29-.26-.74-.52-1.56-.52-.14,0-.3,0-.47.03-.99.1-2.6,2.09-4.4,4.77-.59.87-.81,1.54-.82,2.05v.06c0,.47.21.8.48,1.01h1.53c1.36-1.28,3-5.74,4.08-5.74.11,0,.22.05.32.16.75.81,1.38,1.13,1.92,1.13,2.12,0,2.97-4.91,4.51-5.45h.08c.24-.01.54.37.89.75.35.38.76.76,1.24.76.33,0,.69-.18,1.09-.66.66-.79,1.33-2,2.28-3.2,1.12-1.41,2.96-3.1,3.07-3.46.1-.3.06-.43-.08-.43"></path></g></svg>