<svg width="103" height="53" viewBox="0 0 103 53" fill="none" xmlns="http://www.w3.org/2000/svg">
<g clip-path="url(#clip0_33_143)">
<path d="M31.4421 26.5C31.4421 25.593 30.7157 24.8608 29.8158 24.8608C29.7995 24.8608 29.7887 24.8608 29.7724 24.8608C28.8509 24.828 28.0756 25.5547 28.0431 26.4836C28.0431 26.4891 28.0431 26.4945 28.0431 26.5V26.6366C28.054 28.0244 27.7775 29.4013 27.23 30.6744C26.1837 33.1605 24.2159 35.1385 21.7493 36.193C20.4862 36.7448 19.1201 37.0235 17.7431 37.018H17.1089C16.9191 37.018 16.6969 36.9798 16.4583 36.9415C15.2223 36.7776 14.0297 36.3897 12.9346 35.7887C11.8613 35.1986 10.8963 34.4281 10.0832 33.5102C9.27002 32.5923 8.62491 31.5323 8.17496 30.3848C7.70875 29.1992 7.47565 27.9315 7.48107 26.653C7.47023 25.2706 7.75212 23.9046 8.29965 22.6425C8.83633 21.424 9.58444 20.3148 10.5114 19.3641C11.4439 18.4134 12.5443 17.6485 13.7641 17.1185C15.0218 16.5666 16.377 16.2879 17.7431 16.2989C19.1092 16.2879 20.4645 16.5611 21.7276 17.0911C22.7847 17.5501 23.7605 18.1785 24.617 18.9543L18.2419 25.369C17.7214 26.1066 17.8949 27.1284 18.6268 27.6529C18.6484 27.6693 18.6647 27.6802 18.6864 27.6966C19.4128 28.2594 20.4536 28.1228 21.012 27.3906C21.012 27.3906 21.0174 27.3797 21.0229 27.3797L28.7641 19.5772C29.1328 19.2002 29.1328 18.5937 28.7641 18.2167L27.4305 16.8671C26.162 15.594 24.6658 14.5777 23.0178 13.8784C21.3481 13.1571 19.5538 12.7856 17.7377 12.7856C15.9271 12.7856 14.1381 13.1571 12.4793 13.8784C10.8313 14.5941 9.32965 15.6104 8.04486 16.8726C6.79259 18.1621 5.79512 19.6756 5.10665 21.3366C4.41275 23.014 4.06038 24.8171 4.07123 26.6366C4.07123 28.3195 4.38565 29.986 4.99823 31.5541C5.58912 33.1004 6.44565 34.5374 7.52444 35.7887C8.60323 37.018 9.88802 38.0453 11.3192 38.8266C12.7883 39.6353 14.3983 40.1598 16.0626 40.3674C16.3499 40.4057 16.6047 40.4275 16.9029 40.4494C17.201 40.4712 17.445 40.4494 17.7485 40.4494C19.5592 40.4548 21.3535 40.0997 23.0286 39.4058C24.6875 38.7119 26.1891 37.6846 27.4414 36.3897C28.7153 35.1111 29.7345 33.5922 30.4338 31.9202C31.1114 30.2428 31.453 28.4452 31.4421 26.6366V26.5Z" fill="black"/>
<path d="M86.4929 39.4768L77.044 15.7743C76.9031 15.4629 76.8326 15.1296 76.8326 14.7908C76.8922 13.8292 77.7162 13.097 78.6703 13.1517C79.3588 13.1243 79.9822 13.5778 80.1774 14.2444L88.0487 35.3625L95.8334 14.0914C96.0123 13.4631 96.5706 13.0205 97.2157 12.9987C98.1102 12.9495 98.88 13.6379 98.9342 14.5395C98.9342 14.5559 98.9342 14.5723 98.9342 14.5941C98.9017 14.9329 98.8095 15.2662 98.6632 15.5722L88.58 42.2088C86.4658 47.5743 84.6335 49.8255 79.7383 49.8583C78.2475 49.8583 77.6241 49.361 77.6132 48.3229C77.6024 47.2848 78.1119 46.6837 79.3479 46.6837C83.4192 46.6455 84.4817 44.6074 85.5876 41.8481L86.4929 39.4768Z" fill="black"/>
<path d="M62.0331 14.4466C62.1523 7.20691 65.8603 2.9997 71.791 3.13083C72.6746 3.13083 73.5528 3.21279 74.4202 3.38763C75.1846 3.50784 75.7483 4.16898 75.7592 4.94485C75.8459 5.71526 75.293 6.40918 74.5286 6.4966C74.4419 6.50753 74.3551 6.50753 74.2684 6.4966C73.542 6.4966 72.9782 6.34361 71.894 6.34361C67.465 6.34361 65.714 8.98815 65.508 13.8729H71.3302C72.2138 13.9221 72.886 14.687 72.8318 15.5776C72.783 16.3918 72.1379 17.0474 71.3302 17.0911H65.4863V37.8103C65.4321 38.772 64.6189 39.5096 63.6648 39.455C62.7866 39.4058 62.0819 38.6955 62.0331 37.8103V14.4466Z" fill="black"/>
<path d="M52.1505 14.7744C52.1831 13.8346 52.9637 13.1025 53.8961 13.1353C53.8961 13.1353 53.8961 13.1353 53.9015 13.1353C54.8014 13.0915 55.5604 13.7909 55.6037 14.6979C55.6037 14.7253 55.6037 14.7526 55.6037 14.7744V29.0571C55.6037 35.0292 52.0475 39.4386 45.5043 39.4386C38.9611 39.4386 35.4591 35.0237 35.4591 29.0571V14.7744C35.4591 13.8674 36.1855 13.1353 37.0854 13.1353C37.1125 13.1353 37.1396 13.1353 37.1613 13.1353C38.0775 13.1189 38.8364 13.851 38.8581 14.7744V29.1609C38.8581 33.319 41.2325 36.264 45.5043 36.264C49.7761 36.264 52.1505 33.308 52.1505 29.1609V14.7744Z" fill="black"/>
</g>
<defs>
<clipPath id="clip0_33_143">
<rect width="103" height="53" fill="white"/>
</clipPath>
</defs>
</svg>
