<svg width="537" height="90" viewBox="0 0 537 90" fill="none" xmlns="http://www.w3.org/2000/svg">
<mask id="mask0_1611_4364" style="mask-type:luminance" maskUnits="userSpaceOnUse" x="0" y="0" width="537" height="90">
<path d="M536.28 0H0V89.5006H536.28V0Z" fill="white"/>
</mask>
<g mask="url(#mask0_1611_4364)">
<mask id="mask1_1611_4364" style="mask-type:luminance" maskUnits="userSpaceOnUse" x="0" y="0" width="537" height="90">
<path d="M536.281 0H0V89.5006H536.281V0Z" fill="white"/>
</mask>
<g mask="url(#mask1_1611_4364)">
<path d="M134.691 34.3585V52.5687C134.691 57.4037 134.988 62.2387 132.717 65.7862C131.365 67.9935 129.554 69.754 127.283 70.9365C125.012 72.2504 122.606 72.8285 120.199 72.8285C117.496 72.8285 114.927 72.0927 112.656 70.6212C110.25 69.1497 108.439 67.1 107.222 64.6037C105.573 61.2139 105.708 56.5366 105.708 51.8329V3.82422H90.298V48.2855C90.298 49.3103 90.298 50.4928 90.1358 51.6753C90.1358 57.9818 89.8384 64.446 93.1637 71.0416C95.7321 76.1657 99.2197 80.1336 104.194 83.2081C109.034 86.2825 114.306 87.7541 120.199 87.7541C125.634 87.7541 130.608 86.4402 134.988 83.9438C139.53 81.4475 143.153 77.9263 146.019 73.3804C150.236 66.338 150.236 59.427 150.236 52.5424V3.82422H134.691V34.3585Z" fill="white"/>
</g>
<path d="M195.037 37.2661L179.032 4.55078H161.945L187.467 56.7901V86.4572H203.04V56.0543L227.939 4.55078H210.88L195.037 37.2661Z" fill="white"/>
<mask id="mask2_1611_4364" style="mask-type:luminance" maskUnits="userSpaceOnUse" x="0" y="0" width="537" height="90">
<path d="M536.281 0H0V89.5006H536.281V0Z" fill="white"/>
</mask>
<g mask="url(#mask2_1611_4364)">
<path d="M296.095 68.4139C294.283 70.1745 291.715 71.357 288.849 71.357H279.333V51.3862H288.849C291.877 51.3862 294.283 52.4111 296.095 54.3293C297.906 56.0899 299.123 58.5862 299.123 61.3716C299.123 64.157 297.906 66.4957 296.095 68.4139ZM279.333 18.9337H288.255C290.661 18.9337 292.769 19.8271 294.446 21.43C296.095 23.0329 297.014 25.1089 297.014 27.6052C297.014 30.1016 296.122 32.1512 294.446 33.6227C292.932 35.2257 290.823 36.119 288.255 36.119H279.333V18.9337ZM306.531 43.1614C310.316 38.9045 312.56 33.4651 312.56 27.6052C312.56 20.9833 309.856 15.1235 305.476 10.8666C300.799 6.45197 294.905 3.98188 288.255 3.98188H279.333V3.82422H263.922V86.4664H279.333V86.3088H288.849C295.933 86.3088 302.448 83.5234 307.125 78.9774C311.803 74.4314 314.668 68.2825 314.668 61.3716C314.668 54.4607 311.803 48.1541 307.125 43.6081L306.531 43.1877V43.1614Z" fill="white"/>
</g>
<path d="M358.494 38.364L366.497 54.3669H350.789L358.494 38.364ZM351.249 18.5509L317.887 87.2399H334.811L343.868 68.4515H373.769L383.286 87.2399H400.21L365.334 18.3932L358.224 4.30859L351.276 18.5509H351.249Z" fill="white"/>
<path d="M416.377 51.2143L392.829 3.65234H375.904L409.293 71.3165L416.377 85.5588L423.325 71.3165L456.552 3.65234H439.627L416.377 51.2143Z" fill="white"/>
<path d="M481.993 2.92578H466.609V85.568H481.993V85.4103H510.407V70.3009H481.993V2.92578Z" fill="white"/>
<path d="M536.278 2.92578H520.867V85.568H536.278V2.92578Z" fill="white"/>
<mask id="mask3_1611_4364" style="mask-type:luminance" maskUnits="userSpaceOnUse" x="0" y="0" width="537" height="90">
<path d="M536.281 0H0V89.5006H536.281V0Z" fill="white"/>
</mask>
<g mask="url(#mask3_1611_4364)">
<path d="M60.4789 85.6641V70.2656C56.018 72.7094 50.8542 74.1021 45.3659 74.1021C28.3064 74.1021 14.4911 60.6744 14.4911 44.0934C14.4911 27.5124 28.3064 14.0846 45.3659 14.0846C53.1252 14.0846 60.2085 16.8701 65.6427 21.4686L75.9433 11.5358C67.8867 4.36208 57.1535 0 45.3659 0C20.3038 0 0 19.7343 0 44.0934C0 68.4525 20.3038 88.1867 45.3659 88.1867C50.6649 88.1867 55.7476 87.2933 60.4789 85.6641Z" fill="white"/>
<path d="M76.0028 84.3973C75.8947 83.136 75.6514 80.3769 75.6514 80.3769C75.6243 79.9302 75.5973 79.4572 75.5703 78.9842C75.5703 78.8265 75.5703 78.6952 75.5703 78.5375C75.2458 73.0193 74.7862 63.3754 75.1107 58.0937C75.2729 55.6499 75.381 53.8105 75.4351 52.5229C75.4351 52.4704 75.4351 52.339 75.4351 52.1551C75.4351 51.7872 75.4351 51.2091 75.381 50.5521C74.7862 48.0295 72.6234 47.1098 71.4879 46.7682C71.2446 46.7156 71.0283 46.6631 70.812 46.6105C68.7032 46.085 67.757 45.428 67.3514 45.0602C67.0811 44.7711 66.8377 44.4558 66.6485 44.0616C64.9452 40.8558 63.1609 38.7799 56.402 38.0967C49.616 37.4135 40.4779 41.9069 40.2346 45.9274C39.9643 49.9478 46.5339 55.1769 54.131 55.9652C60.6466 56.6485 63.5394 55.2821 65.2156 53.1536C65.2156 53.1536 65.2156 53.1536 65.2156 53.1273C65.4319 52.8383 65.6482 52.5492 65.8104 52.2339C66.3241 51.5244 67.0811 50.631 67.811 50.3156H67.8651C67.8921 50.3156 67.9192 50.3157 67.9732 50.2894C68.0273 50.2894 68.0543 50.2631 68.1084 50.2368C68.4869 50.1317 69.271 50.0266 69.8387 50.5259C69.8387 50.5259 71.4068 51.0777 71.2175 54.1784C71.0823 56.4908 67.6758 73.4923 66.8918 82.6893C66.8648 83.0835 66.8377 83.425 66.8107 83.7141C66.8107 83.7404 66.8107 83.793 66.8107 83.8455C66.8107 83.8455 66.8107 83.8981 66.8107 83.9244V83.9769C66.7837 84.9754 66.8107 85.4484 66.8107 85.4484C66.9729 87.1827 68.1355 88.628 69.7576 89.2061C70.2713 89.3901 70.812 89.4951 71.4068 89.4951C71.5419 89.4951 71.6771 89.4951 71.8123 89.4951C74.1644 89.2849 76.0299 87.3666 76.0299 85.028C76.0299 84.8177 76.0299 84.6076 75.9758 84.4236" fill="white"/>
</g>
</g>
</svg>
