<svg xmlns="http://www.w3.org/2000/svg" id="Layer_1" data-name="Layer 1" viewBox="0 0 63.46 16.32"><defs><style>      .cls-1 {        fill: #fff;      }    </style></defs><g><path class="cls-1" d="M23.37.7h-1.31v9.62h1.31v-3.45c0-.27.05-.55.15-.8.2-.49.58-.89,1.06-1.1.25-.11.51-.16.78-.16.53,0,1.04.22,1.42.6.18.19.32.41.43.66.1.25.15.53.15.8v3.45h1.31v-3.45c0-.46-.09-.92-.26-1.34-.17-.41-.41-.78-.72-1.09-.3-.31-.66-.56-1.05-.74-.41-.18-.84-.27-1.28-.27-.36,0-.72.06-1.07.18-.33.12-.65.3-.92.52V.7ZM25.36,3.45h0,0"></path><path class="cls-1" d="M32.54,6.03c-.44,0-.87.09-1.28.27-.79.35-1.43,1-1.76,1.82-.17.42-.26.88-.26,1.34,0,.29.04.58.11.86h1.37l-.02-.05h0c-.1-.25-.16-.53-.15-.81,0-.27.05-.55.15-.8.32-.79,1.07-1.27,1.85-1.27.26,0,.53.05.78.16.48.21.86.61,1.07,1.11.1.25.16.53.15.8,0,.28-.05.56-.15.81l-.02.05h1.38c.07-.28.11-.57.11-.86,0-.46-.08-.92-.26-1.34-.17-.4-.41-.78-.72-1.09-.3-.31-.66-.56-1.05-.74-.41-.18-.85-.27-1.28-.27"></path><path class="cls-1" d="M39.71,3.45c-.43,0-.86.09-1.25.27-.39.17-.75.42-1.06.74-.31.31-.55.68-.72,1.09-.18.42-.26.88-.26,1.34v3.44h1.33v-3.45c0-.28.05-.55.15-.8.2-.49.58-.89,1.06-1.1.25-.11.51-.16.78-.16h.66v-1.36h0-.69"></path></g><rect class="cls-1" x="40.96" y="3.45" width="1.29" height="6.88"></rect><g><path class="cls-1" d="M49.31,3.45h-6.48v1.36h3.93c-.12.17-.26.38-.44.63-.18.25-.36.52-.56.81-.2.29-.4.59-.63.9-.22.31-.44.62-.64.93-.49.71-1.01,1.46-1.55,2.23h6.49v-1.36h-3.93c.12-.17.26-.38.44-.63.18-.25.36-.52.56-.81.2-.29.4-.59.62-.9.22-.31.43-.62.63-.92.48-.71,1-1.46,1.55-2.24"></path><path class="cls-1" d="M52.97,3.46c-.44,0-.87.09-1.28.27-.79.34-1.42,1-1.76,1.82-.18.42-.26.88-.26,1.34h0c0,.47.09.92.26,1.34.17.41.41.78.71,1.1.63.66,1.48,1.01,2.34,1.01.43,0,.87-.09,1.28-.27.79-.36,1.43-1.02,1.77-1.85.34-.85.34-1.82,0-2.67-.17-.41-.41-.78-.71-1.09-.31-.31-.66-.56-1.05-.74-.41-.18-.85-.27-1.28-.27M52.97,8.97c-.27,0-.53-.05-.78-.16-.48-.21-.87-.61-1.07-1.11-.1-.25-.15-.53-.15-.81h0c0-.28.05-.55.15-.81.1-.25.24-.47.42-.66.39-.4.91-.61,1.42-.61s1.03.2,1.42.61c.19.19.33.41.43.66.1.25.15.53.15.8,0,.84-.48,1.6-1.22,1.92-.25.11-.51.16-.78.16"></path><path class="cls-1" d="M60.15,3.46c-.44,0-.87.09-1.28.27-.79.34-1.42,1-1.76,1.82h.01c-.18.43-.26.88-.26,1.34v3.45h1.31v-3.45c0-.27.05-.55.15-.8.2-.49.58-.89,1.06-1.1.24-.11.51-.16.77-.16.53,0,1.04.22,1.42.61.18.19.32.41.42.66.1.25.15.53.15.8v3.45h1.31v-3.45c0-.46-.08-.92-.25-1.34-.17-.41-.41-.78-.72-1.09-.31-.31-.66-.56-1.05-.74-.41-.18-.85-.27-1.28-.27"></path><path class="cls-1" d="M47.65,12.47h-1.03v1.74h.97l-.51,1.6h1.09l.79-2.51h0s-1.31,0-1.31,0v-.83ZM36.54,12.47h-1.03v1.74h.97l-.51,1.6h1.09l.79-2.51h0s-1.31,0-1.31,0v-.83ZM45.64,13.29h-.66v.81h.06c.12,0,.18.05.18.16v.72c0,.09-.05.13-.14.13h-.33v-1.82h-1.05v2.51h1.98c.15,0,.3-.07.41-.18.11-.11.17-.27.17-.44h0v-1.25c0-.18-.06-.35-.18-.47-.12-.12-.28-.18-.44-.18M62.86,13.3h-2.22v.81h.38l-.35,1.7h1.11l.25-1.7h.24c.1,0,.14.05.14.14v.87h-.28v.69h1.33v-1.9c0-.35-.27-.62-.6-.62M52.01,13.3h-1v.74c0,.09-.05.13-.13.13l-.56-.87h-1.18l.75,1.03h-.12c-.15,0-.29.07-.38.18-.11.12-.17.27-.17.44v.86h1v-.74c0-.12.03-.18.1-.18h.03l.56.91h1.17,0s-.77-1.08-.77-1.08h.13c.15,0,.3-.06.41-.16.12-.1.18-.24.18-.4v-.87ZM24.04,13.3s-.02,0-.03,0h-1.96v2.51h2.58v-1.86c0-.17-.06-.34-.17-.47-.11-.12-.26-.18-.42-.18M23.1,15.12v-1.01h.4l.08.15v.85h0s-.49,0-.49,0ZM27.04,13.3h-1.95v2.51h1.04v-1.7h.34c.1,0,.15.05.15.14v1.56h1.05v-1.87c0-.18-.06-.34-.19-.46-.12-.12-.28-.18-.44-.18M57.71,13.3h-1.03v1.43h1.03v-1.43ZM56.21,13.3h-2.79v.81h.32v.86c0,.09-.05.14-.14.14h-.22v.71h.81c.33,0,.59-.28.59-.62v-1.08h.38v1.7h1.05v-2.51ZM43.24,13.3h-.94v1.64c0,.11-.05.16-.14.16h-.24v-1.8h-.94v1.8h-.24c-.09,0-.14-.04-.14-.14v-1.66h-.94v1.89c0,.34.27.62.6.62h2.38c.33,0,.59-.28.59-.62h0v-1.89ZM39.18,13.3h-1.05v2.51h1.05v-2.51ZM34.54,13.3h-1.44v.91h.85c.09,0,.14.05.14.14v1.46h1.05v-1.89c0-.34-.27-.62-.6-.62M31.7,13.3h-.94v1.64c0,.11-.05.16-.14.16h-.24v-1.8h-.94v1.8h-.24c-.1,0-.14-.04-.14-.14v-1.66h-.94v1.89c0,.34.27.62.6.62h2.38c.33,0,.59-.28.59-.62h0v-1.89ZM60.06,13.3h-1.95v.91h.91v.82h-.91v.78h2.22v-.78h-.27v-1.73Z"></path></g><g><path class="cls-1" d="M13.27.48c-.55,0-.96.48-.96.48-.04.08-1.23,1.09-.75,1.55h0c.13.11.27.18.43.23.07.05.16.07.26.07.3,0,.65-.21.65-.21.25-.13.48-.3.67-.52.22-.2.4-.44.52-.71.26-.45-.28-.73-.28-.73-.19-.12-.37-.17-.54-.17"></path><path class="cls-1" d="M20.35,0c-.86,0-5.79,5.44-6.18,5.51-.02,0-.03,0-.05,0-.43,0-.93-.86-1.87-1.01-.05,0-.09-.01-.14-.01-1.13,0-2.57,2.01-4.35,4.45-.14.19-.23.26-.32.26-.16,0-.28-.26-.55-.51-.27-.26-.71-.52-1.49-.52-.14,0-.28,0-.44.03-.94.1-2.47,2.08-4.18,4.73-1.67,2.6-.23,3.4.52,3.4.13,0,.23-.02.3-.06,1.34-.77,3.08-5.94,4.18-5.94.11,0,.21.05.3.15.71.8,1.31,1.12,1.83,1.12,2.02,0,2.83-4.87,4.28-5.41.02,0,.05-.01.07-.01.23,0,.51.38.85.75.33.38.72.75,1.18.75.31,0,.66-.18,1.04-.65h0c.63-.79,1.27-1.98,2.17-3.18,1.06-1.4,2.81-3.08,2.92-3.43.09-.3.06-.43-.07-.43"></path></g></svg>