<svg xmlns="http://www.w3.org/2000/svg" id="Layer_1" data-name="Layer 1" viewBox="0 0 65.25 63.57"><defs><style>      .cls-1 {        fill: #fff;      }    </style></defs><path class="cls-1" d="M32.5,9.77c0-.14-.08-.25-.17-.36-2.71-3.06-6.16-5.98-9.09-8.84-1.33-.76-2.83-.74-4.14.04C12.81,6.61,6.62,12.77.6,19.03c-1.02,1.69-.68,3.56.63,4.98l17.02,16.94c2,1.7,3.92,1.69,5.92,0,2.62-2.23,5.66-5.53,8.1-8.06.11-.12.23-.24.23-.42l8.99,8.87c1.7,1.26,3.62,1.17,5.25-.16l17.44-17.35c1.38-1.67,1.43-3.66.06-5.36L46.75,1.06c-1.46-1.31-3.54-1.41-5.14-.28l-9.11,8.99ZM7.55,54.95v4.06c0,.15-.28,1.09-.37,1.28-.61,1.42-2.09,1.31-3.36,1.26l-1.18-8.6H.22l1.31,10.57c3.29-.03,7.16.76,8.23-3.26.07-.26.27-1.05.27-1.26v-6.06h-4.32l-.13.24c.2.49,0,1.06,0,1.52,0,.14,0,.15.13.24h1.83ZM18.79,63.53v-7.12c0-.28-.24-1.22-.35-1.53-.23-.69-.66-1.3-1.34-1.6-.22-.1-1.01-.33-1.2-.33h-4.32v2h3.37c.16,0,.75.48.87.66.14.23.37,1.16.37,1.39v6.53h2.6ZM20.09,63.53h4.43c1.03,0,2.41-1.09,2.8-2.04.54-1.29.51-5.39-.08-6.67-.36-.76-1.04-1.32-1.83-1.59-.21-.07-1.08-.3-1.24-.3h-4.08v2h3.61c.66,0,1.2.93,1.33,1.5.21.91.22,3.42-.18,4.23-.72,1.47-3.15.62-4.46.86-.13.02-.22.06-.3.18v1.82ZM36.64,52.95v3.71c0,.63-.65,1.25-1.31,1.18l-3.36-4.88h-2.54l2.25,3.47c-.81.19-1.59.7-1.95,1.47-.09.19-.41,1.2-.41,1.35v4.29h2.48v-5c0-.22.71-.85.95-.71l3.72,5.71h2.66l-2.72-4.18c1.04-.21,1.75-.58,2.23-1.55.09-.18.37-.79.37-.92v-3.94h-2.36ZM47.87,63.53c-.07-1.93.1-3.9,0-5.83-.07-1.39-.15-3.28-1.37-4.17-.29-.21-1.22-.59-1.54-.59h-4.43v2h3.49c.43,0,1.12,1.11,1.12,1.47v7.12h2.72ZM51.54,52.95h-2.36l.95,10.59h7.03c2.23,0,4.08-2.7,4.08-4.76v-5.82h-2.36v5.94c0,.05-.14.79-.17.89-.74,2.68-4.24,1.41-6.21,1.88l-.95-8.71ZM54.31,52.95l-.18.18v6.82c.74.48,2.48.11,2.48-.94v-5.88l-.18-.18h-2.13ZM65.25,52.95h-2.6v6h2.6v-6Z"></path></svg>