<svg xmlns="http://www.w3.org/2000/svg" id="Layer_1" data-name="Layer 1" viewBox="0 0 72.95 58.47"><defs><style>      .cls-1 {        stroke-width: .18px;      }      .cls-1, .cls-2, .cls-3, .cls-4 {        fill: #fff;      }      .cls-1, .cls-2, .cls-4 {        stroke: #fff;      }      .cls-2 {        stroke-width: .23px;      }      .cls-4 {        stroke-miterlimit: 10;        stroke-width: .12px;      }    </style></defs><path id="path7-1" class="cls-4" d="M14.92,54.14c-.94,0-1.63.48-1.63,1.39,0,.85.6,1.45,1.5,1.45.6,0,1.2-.33,1.57-.81v-1.21c0-.4-.52-.81-1.44-.81M35.3,53.98c.04,1.6,1.06,2.75,2.82,2.75,1.06,0,1.87-.58,2.16-.94.13.1.27.25.27.61,0,.79-.96,1.89-3.19,1.89s-4.07-1.79-4.07-4.13c0-2.58,1.69-4.42,4.19-4.42,2.27,0,3.32,1.68,3.32,3.1,0,.42-.09.81-.27,1.14h-5.23ZM38.48,52.94c.36,0,.37-.21.37-.49-.02-.84-.68-1.62-1.68-1.62-1.3,0-1.81,1.09-1.86,2.11h3.16ZM59.61,53.83c0,1.95.27,2.95,1.53,2.95,1.38,0,1.75-1.23,1.75-2.34v-2.13c0-.73-.35-1.02-1.14-.93-.33-.82.76-1.35,1.38-1.47.19-.03.37-.06.54-.06.87,0,1.2.54,1.2,1.35,0,.3-.03.84-.03,3.08,0,.95-.02,1.45-.02,1.6,0,.74.34,1.11,1.13,1.03.32.82-.76,1.21-1.38,1.33-.19.03-.36.06-.51.06-.82,0-.99-.53-1.16-1.3-.12.14-.22.26-.45.48-.54.51-1.24.81-2.04.81-.87,0-1.6-.33-2.07-.88-.72-.85-.72-1.95-.72-3.56v-1.54c0-.73-.34-1.02-1.14-.93-.33-.82.76-1.35,1.38-1.47.19-.03.37-.06.54-.06.87,0,1.2.54,1.2,1.35l-.02,2.63h0ZM55.82,53.99c0-2.53-1.75-4.25-4.18-4.25-2.25,0-4.24,1.72-4.24,4.25s1.87,4.28,4.16,4.28c2.43,0,4.25-1.75,4.25-4.28M18.23,56.22c0,.65.42.85,1.15.95-.05.75-.57,1.04-1.18,1.1-.69.06-1.36-.26-1.63-.98-.32.29-1.24,1.01-2.46,1.01-1.66,0-2.91-1.11-2.91-2.63,0-1.6,1.39-2.55,3.35-2.55.68,0,1.38.14,1.8.36v-1.07c0-.96-.42-1.57-1.51-1.57-.23,0-.72.06-1.11.21.05.15.08.31.08.46,0,.59-.37,1.06-1,1.06-.55,0-.97-.45-.97-1.02,0-1.05,1.32-1.81,3.15-1.81,1.45,0,2.34.34,2.8.94.42.53.45,1.34.45,2.5v3.04h0ZM53.68,54.12c0,1.95-.84,3-2.02,3-1.05,0-2.07-1.06-2.07-3.36,0-1.8.75-2.92,1.98-2.92,1.21,0,2.11,1.24,2.11,3.28M24.16,51.16c.05.51.48.87.99.87.64,0,1.03-.57,1.03-1.12,0-.78-.63-1.18-1.26-1.18-.72,0-1.48.54-1.92,1.35h-.03c-.13-.7-.48-1.24-1.2-1.24-.16,0-.34.03-.54.09-.6.18-1.48.64-1.15,1.47.84-.16,1.14.12,1.14.85v3.48c0,.69-.09.98-.33,1.18-.23.17-.46.24-.61.27-.34.75.33.98,1.99.98s2.23-.23,1.89-.98c-.15-.03-.57-.1-.79-.27-.24-.2-.34-.49-.34-1.18v-2.1c0-1.87.69-2.37,1.14-2.46M44.77,49.95h2.14c.25.61-.09,1.11-.57,1.15-.15.02-.31.02-.46.02-.39,0-.78-.03-1.05-.03v4.63c0,.69.12.98.36,1.18.23.17.75.24.9.27.34.75-.47.98-2.13.98s-2.35-.23-2.01-.98c.15-.03.39-.1.61-.27.24-.2.33-.49.33-1.18v-4.66l-1.26-.04c-.25-.61.09-1.05.6-1.05h.63v-.6c0-1.21.22-1.89.52-2.34.46-.72,1.26-1.21,2.5-1.21,1.57,0,2.85.73,2.85,1.84,0,.48-.33,1.06-1.02,1.06-.51,0-.99-.43-.99-.97,0-.23.09-.47.21-.61-.18-.21-.55-.32-.91-.32-1.03,0-1.26.76-1.26,1.72v1.41h0ZM30.97,51.16c.05.51.48.87.99.87.64,0,1.03-.57,1.03-1.12,0-.78-.63-1.18-1.26-1.18-.72,0-1.48.54-1.92,1.35h-.03c-.13-.7-.48-1.24-1.2-1.24-.16,0-.34.03-.54.09-.6.18-1.48.64-1.15,1.47.84-.16,1.14.12,1.14.85v3.48c0,.69-.09.98-.33,1.18-.22.17-.46.24-.61.27-.34.75.33.98,1.99.98s2.23-.23,1.89-.98c-.15-.03-.57-.1-.79-.27-.24-.2-.34-.49-.34-1.18v-2.1c0-1.87.69-2.37,1.14-2.46M70.83,51.16c.05.51.49.87,1,.87.64,0,1.02-.57,1.02-1.12,0-.78-.62-1.18-1.26-1.18-.72,0-1.47.54-1.9,1.35h-.04c-.13-.7-.48-1.24-1.18-1.24-.18,0-.35.03-.55.09-.59.18-1.47.64-1.15,1.47.84-.16,1.14.12,1.14.85v3.48c0,.69-.09.98-.33,1.18-.21.17-.46.24-.6.27-.35.75.33.98,1.99.98s2.22-.23,1.88-.98c-.14-.03-.56-.1-.79-.27-.23-.2-.33-.49-.33-1.18v-2.1c0-1.87.68-2.37,1.12-2.46"></path><path id="path9-7" class="cls-1" d="M14.92,54.14c-.94,0-1.63.48-1.63,1.39,0,.85.6,1.45,1.5,1.45.6,0,1.2-.33,1.57-.81v-1.21c0-.4-.52-.81-1.44-.81ZM35.3,53.98c.04,1.6,1.06,2.75,2.82,2.75,1.06,0,1.87-.58,2.16-.94.13.1.27.25.27.61,0,.79-.96,1.89-3.19,1.89s-4.07-1.79-4.07-4.13c0-2.58,1.69-4.42,4.19-4.42,2.27,0,3.32,1.68,3.32,3.1,0,.42-.09.81-.27,1.14h-5.23ZM38.48,52.94c.36,0,.37-.21.37-.49-.02-.84-.68-1.62-1.68-1.62-1.3,0-1.81,1.09-1.86,2.11h3.16ZM59.61,53.83c0,1.95.27,2.95,1.53,2.95,1.38,0,1.75-1.23,1.75-2.34v-2.13c0-.73-.35-1.02-1.14-.93-.33-.82.76-1.35,1.38-1.47.19-.03.37-.06.54-.06.87,0,1.2.54,1.2,1.35,0,.3-.03.84-.03,3.08,0,.95-.02,1.45-.02,1.6,0,.74.34,1.11,1.13,1.03.32.82-.76,1.21-1.38,1.33-.19.03-.36.06-.51.06-.82,0-.99-.53-1.16-1.3-.12.14-.22.26-.45.48-.54.51-1.24.81-2.04.81-.87,0-1.6-.33-2.07-.88-.72-.85-.72-1.95-.72-3.56v-1.54c0-.73-.34-1.02-1.14-.93-.33-.82.76-1.35,1.38-1.47.19-.03.37-.06.54-.06.87,0,1.2.54,1.2,1.35l-.02,2.63h0ZM55.82,53.99c0-2.53-1.75-4.25-4.18-4.25-2.25,0-4.24,1.72-4.24,4.25s1.87,4.28,4.16,4.28c2.43,0,4.25-1.75,4.25-4.28ZM18.23,56.22c0,.65.42.85,1.15.95-.05.75-.57,1.04-1.18,1.1-.69.06-1.36-.26-1.63-.98-.32.29-1.24,1.01-2.46,1.01-1.66,0-2.91-1.11-2.91-2.63,0-1.6,1.39-2.55,3.35-2.55.68,0,1.38.14,1.8.36v-1.07c0-.96-.42-1.57-1.51-1.57-.23,0-.72.06-1.11.21.05.15.08.31.08.46,0,.59-.37,1.06-1,1.06-.55,0-.97-.45-.97-1.02,0-1.05,1.32-1.81,3.15-1.81,1.45,0,2.34.34,2.8.94.42.53.45,1.34.45,2.5v3.04h0ZM53.68,54.12c0,1.95-.84,3-2.02,3-1.05,0-2.07-1.06-2.07-3.36,0-1.8.75-2.92,1.98-2.92,1.21,0,2.11,1.24,2.11,3.28ZM24.16,51.16c.05.51.48.87.99.87.64,0,1.03-.57,1.03-1.12,0-.78-.63-1.18-1.26-1.18-.72,0-1.48.54-1.92,1.35h-.03c-.13-.7-.48-1.24-1.2-1.24-.16,0-.34.03-.54.09-.6.18-1.48.64-1.15,1.47.84-.16,1.14.12,1.14.85v3.48c0,.69-.09.98-.33,1.18-.23.17-.46.24-.61.27-.34.75.33.98,1.99.98s2.23-.23,1.89-.98c-.15-.03-.57-.1-.79-.27-.24-.2-.34-.49-.34-1.18v-2.1c0-1.87.69-2.37,1.14-2.46h0ZM44.77,49.95h2.14c.25.61-.09,1.11-.57,1.15-.15.02-.31.02-.46.02-.39,0-.78-.03-1.05-.03v4.63c0,.69.12.98.36,1.18.23.17.75.24.9.27.34.75-.47.98-2.13.98s-2.35-.23-2.01-.98c.15-.03.39-.1.61-.27.24-.2.33-.49.33-1.18v-4.66l-1.26-.04c-.25-.61.09-1.05.6-1.05h.63v-.6c0-1.21.22-1.89.52-2.34.46-.72,1.26-1.21,2.5-1.21,1.57,0,2.85.73,2.85,1.84,0,.48-.33,1.06-1.02,1.06-.51,0-.99-.43-.99-.97,0-.23.09-.47.21-.61-.18-.21-.55-.32-.91-.32-1.03,0-1.26.76-1.26,1.72v1.41h0ZM30.97,51.16c.05.51.48.87.99.87.64,0,1.03-.57,1.03-1.12,0-.78-.63-1.18-1.26-1.18-.72,0-1.48.54-1.92,1.35h-.03c-.13-.7-.48-1.24-1.2-1.24-.16,0-.34.03-.54.09-.6.18-1.48.64-1.15,1.47.84-.16,1.14.12,1.14.85v3.48c0,.69-.09.98-.33,1.18-.22.17-.46.24-.61.27-.34.75.33.98,1.99.98s2.23-.23,1.89-.98c-.15-.03-.57-.1-.79-.27-.24-.2-.34-.49-.34-1.18v-2.1c0-1.87.69-2.37,1.14-2.46h0ZM70.83,51.16c.05.51.49.87,1,.87.64,0,1.02-.57,1.02-1.12,0-.78-.62-1.18-1.26-1.18-.72,0-1.47.54-1.9,1.35h-.04c-.13-.7-.48-1.24-1.18-1.24-.18,0-.35.03-.55.09-.59.18-1.47.64-1.15,1.47.84-.16,1.14.12,1.14.85v3.48c0,.69-.09.98-.33,1.18-.21.17-.46.24-.6.27-.35.75.33.98,1.99.98s2.22-.23,1.88-.98c-.14-.03-.56-.1-.79-.27-.23-.2-.33-.49-.33-1.18v-2.1c0-1.87.68-2.37,1.12-2.46Z"></path><path id="path11-4" class="cls-4" d="M.11,52.34c0,3.78,2.6,6.02,5.44,6.02,2.55,0,4.33-1.79,4.33-3.28,0-.79-.49-1.37-1.14-1.37s-1.21.45-1.21,1.21c0,.49.27.76.46.98-.34.67-1.08,1.21-2.22,1.21-1.89,0-3.25-1.97-3.25-4.79s1.3-4.81,3.19-4.81c1.14,0,1.87.55,2.22,1.21-.19.22-.46.49-.46.99,0,.76.55,1.21,1.21,1.21s1.14-.58,1.14-1.38c0-1.48-1.78-3.28-4.33-3.28-2.83,0-5.38,2.46-5.38,6.07"></path><path id="path13-0" class="cls-2" d="M.11,52.34c0,3.78,2.6,6.02,5.44,6.02,2.55,0,4.33-1.79,4.33-3.28,0-.79-.49-1.37-1.14-1.37s-1.21.45-1.21,1.21c0,.49.27.76.46.98-.34.67-1.08,1.21-2.22,1.21-1.89,0-3.25-1.97-3.25-4.79s1.3-4.81,3.19-4.81c1.14,0,1.87.55,2.22,1.21-.19.22-.46.49-.46.99,0,.76.55,1.21,1.21,1.21s1.14-.58,1.14-1.38c0-1.48-1.78-3.28-4.33-3.28-2.83,0-5.38,2.46-5.38,6.07h0Z"></path><path id="path15-9" class="cls-3" d="M24.64,1.3l-15.89,15.37c-.79.67-1.3,1.47-1.3,2.6s.51,1.92,1.3,2.6l15.89,15.37c.1.1.2.15.28.15.15,0,.25-.14.25-.3,0-.09-.05-.2-.14-.3-3.73-4.63-6.44-9.95-6.44-17.46s2.71-12.94,6.44-17.57c.09-.09.14-.2.14-.3,0-.16-.1-.3-.25-.3-.08,0-.18.04-.28.14"></path><path id="path17-4" class="cls-3" d="M36.86,0c-6.22,0-8.65,8.82-8.65,19.33s2.43,19.21,8.65,19.21c3.73,0,6.92-2.19,6.93-3.98,0-.39-.15-.77-.48-1.1-1.77-1.71-2.46-3.42-2.47-4.93-.01-2.88,2.49-5.02,4.79-5.02,3.16,0,5.03,2.49,5.03,5.71,0,3.05-1.3,5.59-2.72,7.63-.06.08-.08.18-.08.26,0,.16.1.29.24.29.09,0,.19-.05.3-.16l15.89-15.37c.79-.68,1.3-1.47,1.3-2.6s-.51-1.92-1.3-2.6L48.39,1.3c-.11-.11-.21-.16-.3-.16-.14,0-.23.13-.24.29,0,.08.03.17.08.26,1.41,2.03,2.72,4.58,2.72,7.63,0,3.22-1.87,5.71-5.03,5.71-2.3,0-4.8-2.14-4.79-5.02,0-1.51.7-3.22,2.47-4.93.33-.33.48-.7.48-1.1-.01-1.8-3.19-3.99-6.93-3.99"></path></svg>