<svg xmlns="http://www.w3.org/2000/svg" id="Layer_1" data-name="Layer 1" viewBox="0 0 100.13 51.19"><defs><style>      .cls-1 {        fill: #fff;        fill-rule: evenodd;      }    </style></defs><path class="cls-1" d="M57.96,3.16C56.96,1.11,55.14.06,52.73,0c-2.52-.06-4.28,1.05-5.28,3.16l-8.92,18.71c-1,2.05-1.35,2.92-1.35,4.33,0,2.28,1.88,4.44,5.04,4.44,2.23,0,3.4-.76,4.69-2.86l1.29-2.1c.88-1.4,2.23-2.81,4.46-2.81s3.52,1.4,4.4,2.81l1.29,2.1c1.29,2.1,2.41,2.86,4.63,2.86,3.23,0,4.99-2.22,4.99-4.5,0-1.4-.23-2.22-1.17-4.15L57.95,3.16h0Z"></path><path class="cls-1" d="M28.39,0c-2.05,0-3.17.58-4.28,1.87l-7.39,8.48L9.27,1.87C8.15.59,7.04,0,4.99,0,2.11,0,0,1.93,0,5.61v19.76c0,3.62,2.05,5.2,5.28,5.2,1.35,0,2.46-.29,3.34-.94.94-.88,1.47-2.22,1.47-4.27v-7.66l2.35,2.92c1.06,1.29,2.29,2.28,4.28,2.28,1.64,0,2.82-.64,4.16-2.34l2.41-2.86v7.66c0,2.05.53,3.39,1.47,4.27.88.64,1.99.94,3.34.94,3.23,0,5.28-1.58,5.28-5.2V5.61C33.38,1.93,31.27,0,28.39,0Z"></path><path class="cls-1" d="M92.8,15.44l5.74-6.43c1.11-1.29,1.58-2.51,1.58-4.03C100.13,2.46,97.67,0,94.85,0c-1.47,0-2.87.7-4.22,2.22l-4.91,5.6-4.89-5.65C79.54.65,78.02,0,76.55,0c-2.87,0-5.28,2.34-5.28,4.91,0,1.52.47,2.75,1.58,4.03l5.73,6.45-5.61,6.23c-1.11,1.29-1.53,2.51-1.53,3.98,0,2.46,2.17,5.03,5.22,5.03,1.53,0,2.93-.58,4.28-2.16l4.75-5.46,4.75,5.46c1.29,1.52,2.76,2.16,4.17,2.16,3.17,0,5.28-2.57,5.28-4.97,0-1.46-.41-2.69-1.52-3.98l-5.57-6.25h0Z"></path><path class="cls-1" d="M5.2,43.34H1.59l.09-1.13h6.03l-.07,1.03-1.08.1v6.01h-1.36v-6.01Z"></path><path class="cls-1" d="M13.3,44.84c0-1.3-.52-1.52-2.21-1.52-.59,0-1.13-.01-1.8.04l.09-1.16c.71-.06,1.3-.06,1.95-.06,2.39,0,3.33.55,3.33,2.46v4.76h-1.36v-4.52Z"></path><path class="cls-1" d="M21.75,49.35l-2.83-3.88c-.57.3-.74,1.07-.81,1.96l-.13,1.92h-1.36l.14-2.03c.1-1.34.54-2.27,1.56-2.64l-1.8-2.47h1.54l2.58,3.59c.78-.27.92-.9.98-2.01l.1-1.58h1.36l-.1,1.58c-.11,1.86-.72,2.54-1.77,2.78l2.01,2.78h-1.47Z"></path><path class="cls-1" d="M25.27,45.44l1.36-.08v5.83h-1.36v-5.75ZM30.24,43.38h-5.11l.09-1.17h6.47l-.08,1.17-1.83,5.97h-1.36s1.83-5.97,1.83-5.97h0Z"></path><path class="cls-1" d="M36.71,42.21h1.33v4.09l-1.33.08v-4.18Z"></path><path class="cls-1" d="M40.4,44.31l-.28-2.1h1.32l.17,1.3c.45-.76,1.33-1.41,2.65-1.41,1.93,0,2.69,1.3,2.69,3.25,0,1-.04,2.63-.23,4.01h-3.6l.07-1.12h2.28c.06-.88.11-1.78.11-2.67,0-1.5-.28-2.36-1.56-2.36-1.09,0-1.61.54-2.27,1.43l-.27,4.71h-1.36l.27-5.04h0Z"></path><path class="cls-1" d="M49.33,49.35h1.33v-7.14h-1.33v7.14Z"></path><path class="cls-1" d="M57.99,49.35l-2.83-3.88c-.57.3-.74,1.07-.81,1.96l-.13,1.92h-1.36l.14-2.03c.1-1.34.54-2.27,1.56-2.64l-1.8-2.47h1.54l2.58,3.59c.78-.27.92-.9.98-2.01l.1-1.58h1.36l-.1,1.58c-.11,1.86-.72,2.54-1.77,2.78l2.01,2.78h-1.47Z"></path><path class="cls-1" d="M64.96,43.38h-4.02v-2.94l1.29-.08v1.85h4.18l-.09,1.17-2.46,5.97h-1.36s2.46-5.97,2.46-5.97Z"></path><path class="cls-1" d="M78.7,44.74v4.62h-1.36v-4.33c0-1.51-.25-1.75-2.62-1.75h-.85v4.01c0,1.71-.67,2.15-1.98,2.15-.24,0-.48-.01-.74-.07l.07-1.13c.27.01.34.03.52.03.59,0,.76-.13.76-.81v-4.15c-.49.01-.95.04-1.42.07l.09-1.16c1.09-.07,2.17-.13,3.74-.13,2.95,0,3.78.59,3.78,2.65"></path><path class="cls-1" d="M80.77,42.21h1.33v4.09l-1.33.08v-4.18Z"></path><path class="cls-1" d="M84.08,48.23h3.8v-3.29c0-1.38-.51-1.62-2.07-1.62-.68,0-1.29.01-1.83.04l.09-1.16c.59-.03,1.25-.06,1.98-.06,2.25,0,3.19.56,3.19,2.51v3.57l1.16.1-.07,1.03h-6.32l.07-1.13Z"></path><path class="cls-1" d="M92.01,44.31l-.28-2.1h1.32l.17,1.3c.45-.76,1.33-1.41,2.65-1.41,1.93,0,2.69,1.3,2.69,3.25,0,1-.04,2.63-.23,4.01h-3.6l.07-1.12h2.28c.06-.88.11-1.78.11-2.67,0-1.5-.28-2.36-1.56-2.36-1.09,0-1.61.54-2.27,1.43l-.27,4.71h-1.36l.27-5.04h0Z"></path></svg>