<svg xmlns="http://www.w3.org/2000/svg" id="Layer_1" data-name="Layer 1" viewBox="0 0 140.08 29.25"><defs><style>      .cls-1 {        fill: #fff;      }    </style></defs><path class="cls-1" d="M10.47,18.86c-1.08-.41-6.29-1.07-3.86-2.8,1.87-1.33,5.32-.12,7.2.72l1.86-3.34c-4.05-3.1-14.81-1.82-13.86,4.75.53,3.7,7.59,3.74,7.98,4.96.4,1.25-1.67,2.07-2.69,2.1-2.17.05-3.71-1.43-5.57-2l-1.53,3.56c3.68,3.04,11.25,3.69,13.81-1,1.84-3.36-.2-5.75-3.35-6.95h0Z"></path><path class="cls-1" d="M51.81,14.86c-3.13,3.67-2.82,9.3-3.88,13.79h4.15c.86-3.76.62-12.79,6.09-12.9,5.82-.12,1.8,9.33,1.71,12.48.21.73,3.19.42,3.88.3.65-2.73,1.66-6.47,1.66-9.29,0-7.82-8.69-10.14-13.6-4.39h0Z"></path><path class="cls-1" d="M45.59,12.42c-.9,3.77-.66,12.51-6.09,12.64-5.95.14-1.69-9.37-1.69-12.64h-4.15c-.48,5.05-3.54,11.49,1.29,15.33,3.74,2.97,9.04,1.19,11.52-2.47,2.42-3.57,2.15-8.79,3.26-12.87h-4.15,0Z"></path><path class="cls-1" d="M91.67,15.83c1.89-.35,2.68.79,4.21,1.48.73-2.26,2.96-2.95.08-4.59-5.31-3.01-11.55,1.64-12.5,7.06-1.42,8.2,6.62,12.36,12.82,7.06l-1.84-3.61c-8.19,6.79-9.43-6.2-2.78-7.41Z"></path><path class="cls-1" d="M124.63,16c.16-.12,1.74-3.34,1.58-3.57-2.45-1-4.83-1.16-6.86.76l-.27-.79-3.71.05-2.84,15.62.34.58h3.76c.96-3.84.36-11.19,5.04-12.64,1.03-.32,2.84.07,2.97-.02h0Z"></path><path class="cls-1" d="M89.4.06c-.51-.5-7.2,2.42-7.93,3.33-.7.87-.8,3.73-.88,4.92,2.33-2.23,5.1-4.03,8.23-4.96l.58-3.28h0Z"></path><path class="cls-1" d="M125.59,16.05c-5.87,9.38,4.83,18.17,12.27,9.6l-2.74-2.65c-2.63,2.44-6.15,3.34-7.09-1.05h11.67c2.6-9.66-8.87-14.28-14.11-5.9h0ZM136.07,18.6l-7.26.26c.45-2.26,4.29-4.15,6.14-2.5.25.23,1.22,2.16,1.12,2.24Z"></path><path class="cls-1" d="M105.16,11.72c-11.46,1.05-11.01,20.43.89,17.12,9.29-2.59,8.92-18.02-.89-17.12ZM104.77,24.99c-5.9,1.23-4.66-8.17.12-9.16,5.76-1.19,4.72,8.14-.12,9.16Z"></path><path class="cls-1" d="M23.5,11.72c-10.79,1.28-11.09,19.15.13,17.39,9.99-1.57,10.27-18.62-.13-17.39ZM21.41,24.99c-3.99-.92-1.94-8.48,2.08-9.16,6.51-1.11,3.91,10.54-2.08,9.16Z"></path><path class="cls-1" d="M83.06,8.05c-1.44,1.19-3.26,3-3.51,4.89-6.62-3.89-13.76,2.46-13.23,9.41.73,9.52,13.14,8.66,15.75-.34,1.34-4.63,1.51-10.25,2.67-15-.17-.19-1.44.85-1.68,1.04ZM71.51,24.41c-2.83-2.3-.2-7.92,3.05-8.58,1.24-.25,2.61.16,3.3,1.24,2.39,3.76-2.84,10.19-6.35,7.34h0Z"></path></svg>