<svg width="39" height="31" viewBox="0 0 39 31" fill="none" xmlns="http://www.w3.org/2000/svg">
<g clip-path="url(#clip0_653_1231)">
<path d="M39 12.4271C39 12.2377 38.8987 12.0636 38.7357 11.9696L36.0567 10.4269L38.7372 8.87588C38.9002 8.78118 39.0008 8.6063 39.0008 8.41766C39.0008 8.22903 38.8995 8.05414 38.7364 7.96021C34.1684 5.3308 29.6012 2.70062 25.0346 0.0704511C24.8716 -0.0234837 24.6713 -0.0234837 24.5091 0.0704511L0.263555 14.1057C0.100547 14.1996 0 14.3745 0 14.5639C0 14.7533 0.100547 14.9274 0.264316 15.0214C1.15705 15.5361 2.05055 16.0493 2.94328 16.564L0.263555 18.1151C0.100547 18.2098 0 18.3847 0 18.5733C0 18.7627 0.101309 18.9368 0.264316 19.0308L2.94328 20.5734L0.262793 22.1245C0.100547 22.2192 0 22.3941 0 22.5827C0 22.7721 0.101309 22.9462 0.264316 23.0402L13.9654 30.9292C14.0469 30.9758 14.1375 30.9994 14.2281 30.9994C14.3188 30.9994 14.4102 30.9758 14.4917 30.9284L38.7372 16.8939C38.9002 16.7992 39.0008 16.6251 39.0008 16.4357C39.0008 16.2471 38.8995 16.0722 38.7364 15.9783L36.0575 14.4356L38.738 12.8845C38.901 12.7898 39.0015 12.6157 39.0015 12.4263L39 12.4271ZM24.7734 1.1381C28.9872 3.56589 33.2018 5.99216 37.4171 8.41843L28.2918 13.6994C28.0015 13.5344 27.4691 13.229 26.7767 12.8311L31.9648 9.82974C32.0897 9.75719 32.1796 9.63729 32.2131 9.49753C32.2474 9.35777 32.223 9.20962 32.1453 9.08742C32.0341 8.91254 31.8703 8.56429 32.0288 8.19924C32.1354 7.95257 32.0402 7.66389 31.8079 7.53025L26.1993 4.29828C26.0637 4.22038 25.9 4.20664 25.7529 4.26162C25.0324 4.53121 24.049 4.48844 23.2484 4.15318C23.0976 4.09055 22.9239 4.10048 22.7815 4.18296L17.2918 7.36147C17.0899 7.24462 16.8957 7.13312 16.7167 7.02926L15.6541 6.41601L24.7734 1.1381ZM31.0157 9.15845L25.7179 12.2232C23.5592 10.9806 20.5854 9.2646 18.346 7.97166L23.09 5.22464C23.9972 5.54234 25.024 5.58282 25.8771 5.33233L30.9288 8.24278C30.8839 8.54367 30.9144 8.8545 31.0164 9.15769L31.0157 9.15845ZM10.6991 9.28369C11.2079 9.57695 11.7175 9.87021 12.2263 10.1635L7.04742 13.1633C6.9225 13.2351 6.83262 13.3557 6.7991 13.4955C6.76482 13.636 6.7892 13.7834 6.86689 13.9056C6.97811 14.0805 7.14188 14.4287 6.9842 14.7938C6.87756 15.0404 6.97277 15.3291 7.2051 15.4628L12.8121 18.6894C12.9477 18.7673 13.1122 18.781 13.2592 18.726C13.9791 18.4565 14.9624 18.4985 15.7638 18.8337C15.8285 18.8612 15.8978 18.8742 15.9664 18.8742C16.0578 18.8742 16.1492 18.8505 16.2299 18.8032L17.0937 18.303C18.6347 17.411 20.1756 16.5182 21.7174 15.627L23.3444 16.5633L14.2274 21.8427C10.0128 19.4172 5.79744 16.9902 1.58361 14.5624L10.6999 9.28446L10.6991 9.28369ZM7.99576 13.8338L13.2836 10.7714C15.5139 12.0559 17.7442 13.3397 19.9746 14.6235L20.6609 15.0183C19.2959 15.808 17.9316 16.5976 16.5674 17.3873L15.9207 17.7615C15.0127 17.4438 13.9867 17.4041 13.1336 17.6538L8.08412 14.7479C8.1283 14.4471 8.09859 14.1362 7.99652 13.8338H7.99576ZM4.00055 17.1719C7.32164 19.085 10.6435 20.998 13.9654 22.9096C14.0469 22.9562 14.1375 22.9798 14.2281 22.9798C14.3188 22.9798 14.4102 22.9562 14.4917 22.9088L23.8753 17.4751L23.8822 20.2634L14.2274 25.8513L1.58285 18.5718L4.00055 17.1727V17.1719ZM14.2274 29.8615L1.58285 22.5812L4.00055 21.1821L13.9654 26.9198C14.0469 26.9663 14.1375 26.99 14.2281 26.99C14.3188 26.99 14.4102 26.9663 14.4917 26.919L23.8852 21.4815L23.8921 24.2674L14.2281 29.8615H14.2274ZM24.944 23.6588L24.9265 16.5602C24.9265 16.3716 24.8252 16.1967 24.6622 16.1035C24.6622 16.1035 14.6684 10.3521 11.7541 8.6735L14.5968 7.0285C14.5968 7.0285 26.8917 14.1255 27.7692 14.6059L27.7837 22.0153L24.9432 23.6603L24.944 23.6588ZM37.4171 16.438L28.8379 21.4043L28.8326 18.6176L35.0017 15.0466L37.4179 16.4372L37.4171 16.438ZM28.8295 17.3995L28.8242 14.612L35.001 11.0371L37.4171 12.4286L28.8295 17.3995ZM12.694 15.585C12.5486 15.3322 12.6346 15.0091 12.8868 14.8633L15.1955 13.5268C15.4469 13.3809 15.7699 13.4672 15.9154 13.72C16.0608 13.9728 15.9748 14.2958 15.7226 14.4417L13.4139 15.7782C13.3308 15.8263 13.2402 15.8492 13.1503 15.8492C12.9683 15.8492 12.7908 15.7545 12.694 15.585ZM26.6099 7.52872C26.7554 7.7815 26.6693 8.10455 26.4172 8.25041L24.3864 9.42574C24.3034 9.47386 24.2128 9.49677 24.1236 9.49677C23.9416 9.49677 23.7641 9.40207 23.6674 9.23253C23.5219 8.97974 23.6079 8.6567 23.8601 8.51083L25.8908 7.3355C26.1429 7.18964 26.4652 7.27593 26.6106 7.52872H26.6099Z" fill="black"/>
</g>
<defs>
<clipPath id="clip0_653_1231">
<rect width="39" height="31" fill="white"/>
</clipPath>
</defs>
</svg>
