<svg width="39" height="39" viewBox="0 0 39 39" fill="none" xmlns="http://www.w3.org/2000/svg">
<g clip-path="url(#clip0_654_1437)">
<path d="M36.96 16.6357H16.3799C15.2395 16.6357 14.3398 17.5495 14.3398 18.7076V36.9281C14.3398 38.0862 15.2395 39 16.3799 39H36.96C38.1004 39 39 38.0862 39 36.9281V18.7076C39 17.5495 38.1004 16.6357 36.96 16.6357ZM19.3801 37.7811V34.0639H21.3603V37.7811H19.3801ZM25.6802 37.7811V32.1142H27.6605V37.7811H25.6802ZM31.9803 37.7811V30.3466H33.9606V37.7811H31.9803ZM36.96 37.7811H35.1599V29.7372C35.1599 29.3714 34.92 29.1278 34.5598 29.1278H31.3795C31.0193 29.1278 30.7794 29.3714 30.7794 29.7372V37.7811H28.8598V31.4432C28.8598 31.0774 28.6199 30.8338 28.2597 30.8338H25.0794C24.7192 30.8338 24.4793 31.0774 24.4793 31.4432V37.7811H22.5596V33.4544C22.5596 33.0886 22.3198 32.845 21.9596 32.845H18.7793C18.4191 32.845 18.1792 33.0886 18.1792 33.4544V37.7811H16.3791C15.8993 37.7811 15.5391 37.4153 15.5391 36.9281V23.3386H26.9393C27.2995 23.3386 27.5393 23.095 27.5393 22.7292C27.5393 22.3634 27.2995 22.1198 26.9393 22.1198H15.5391V18.7076C15.5391 18.2204 15.8993 17.8546 16.3791 17.8546H36.9592C37.4389 17.8546 37.7991 18.2204 37.7991 18.7076V22.1198H31.6791C31.3189 22.1198 31.0791 22.3634 31.0791 22.7292C31.0791 23.095 31.3189 23.3386 31.6791 23.3386H37.7991V36.9281C37.7991 37.4153 37.4389 37.7811 36.9592 37.7811H36.96Z" fill="black"/>
<path d="M17.7016 19.2568C17.402 19.2568 17.1016 19.5004 17.1016 19.8663C17.1016 20.1706 17.3414 20.4757 17.7016 20.4757C18.0618 20.4757 18.3017 20.1714 18.3017 19.8663C18.3017 19.5004 18.002 19.2568 17.7016 19.2568Z" fill="black"/>
<path d="M20.1 19.2568C19.7399 19.2568 19.5 19.5004 19.5 19.8663C19.5 20.2321 19.7399 20.4757 20.1 20.4757C20.4602 20.4757 20.7001 20.1714 20.7001 19.8663C20.7001 19.5611 20.4602 19.2568 20.1 19.2568Z" fill="black"/>
<path d="M22.4985 19.2568C22.1383 19.2568 21.8984 19.5611 21.8984 19.8663C21.8984 20.1714 22.1383 20.4757 22.4985 20.4757C22.8587 20.4757 23.0985 20.1714 23.0985 19.8663C23.0985 19.5611 22.8587 19.2568 22.4985 19.2568Z" fill="black"/>
<path d="M31.501 24.74L29.2212 23.887C28.9215 23.7648 28.5614 23.9477 28.441 24.2528C28.3207 24.5579 28.5008 24.9229 28.8012 25.0451L29.7009 25.4109L19.2012 30.1034C18.9016 30.2256 18.7813 30.5906 18.9016 30.8958C19.0219 31.2009 19.3813 31.3223 19.6817 31.2001L30.1814 26.4469L29.8212 27.3606C29.7009 27.6649 29.881 28.0307 30.1814 28.1529C30.4818 28.2752 30.8412 28.0922 30.9615 27.7871C31.3815 26.629 31.7417 25.7152 31.8015 25.4716C31.9816 25.1673 31.8015 24.8622 31.5018 24.74H31.501Z" fill="black"/>
<path d="M13.2003 33.1502C13.5605 33.1502 13.8003 32.9066 13.8003 32.5407C13.8003 32.1749 13.5605 31.9313 13.2003 31.9313C6.12002 31.9313 1.2001 29.7987 1.2001 27.8482V22.7292C3.4202 24.6789 8.46045 25.7148 13.2003 25.7148C13.5605 25.7148 13.8003 25.4712 13.8003 25.1054C13.8003 24.7396 13.5605 24.496 13.2003 24.496C6.12002 24.496 1.2001 22.3634 1.2001 20.4129C1.2001 20.2907 1.2001 15.111 1.2001 15.1725C3.84015 17.488 9.72032 18.1581 13.2003 18.1581C13.5605 18.1581 13.8003 17.9145 13.8003 17.5487C13.8003 17.1829 13.5605 16.9393 13.2003 16.9393C6.12002 16.9393 1.2001 14.8067 1.2001 12.8562V7.6158C3.84015 9.93129 9.72032 10.6014 13.2003 10.6014C16.6802 10.6014 22.5604 9.93129 25.2005 7.6158V14.5016C25.2005 14.8674 25.4403 15.111 25.8005 15.111C26.1607 15.111 26.4006 14.8674 26.4006 14.5016V5.3003C26.3998 1.82828 19.6199 0 13.2003 0C6.78063 0 0 1.88898 0 5.30192V27.849C0 31.3227 6.77984 33.151 13.2003 33.151V33.1502ZM13.2003 1.21885C20.2805 1.21885 25.2005 3.35144 25.2005 5.30192C25.2005 7.25241 20.2805 9.38499 13.2003 9.38499C6.12002 9.38499 1.2001 7.2516 1.2001 5.30192C1.2001 3.35225 6.12002 1.21885 13.2003 1.21885Z" fill="black"/>
<path d="M8.10005 5.66709H9.12005C9.48024 5.66709 9.7201 5.42349 9.7201 5.05767C9.7201 4.69185 9.48024 4.44824 9.12005 4.44824H8.10005C7.73986 4.44824 7.5 4.69185 7.5 5.05767C7.5 5.42349 7.73986 5.66709 8.10005 5.66709Z" fill="black"/>
<path d="M12.7211 5.66709H13.7411C14.1013 5.66709 14.3412 5.42349 14.3412 5.05767C14.3412 4.69185 14.1013 4.44824 13.7411 4.44824H12.7211C12.361 4.44824 12.1211 4.69185 12.1211 5.05767C12.1211 5.42349 12.361 5.66709 12.7211 5.66709Z" fill="black"/>
<path d="M17.3395 5.66709H18.2997C18.6599 5.66709 18.8998 5.42349 18.8998 5.05767C18.8998 4.69185 18.6599 4.44824 18.2997 4.44824H17.2797C16.9195 4.44824 16.6797 4.69185 16.6797 5.05767C16.6797 5.42349 16.9793 5.66709 17.3395 5.66709Z" fill="black"/>
</g>
<defs>
<clipPath id="clip0_654_1437">
<rect width="39" height="39" fill="white"/>
</clipPath>
</defs>
</svg>
