<svg width="31" height="33" viewBox="0 0 31 33" fill="none" xmlns="http://www.w3.org/2000/svg">
<g clip-path="url(#clip0_654_1449)">
<path d="M26.4798 5.15625C26.8363 5.15625 27.1256 4.8675 27.1256 4.51172V0.644531C27.1256 0.297129 26.8408 0 26.4798 0H22.6048C22.2483 0 21.959 0.28875 21.959 0.644531C21.959 1.00031 22.2483 1.28906 22.6048 1.28906H25.0415L23.3869 3.1466C18.6006 8.51941 11.7245 11.6016 4.52083 11.6016C4.16433 11.6016 3.875 11.8903 3.875 12.2461C3.875 12.6019 4.16433 12.8906 4.52083 12.8906C12.0926 12.8906 19.3207 9.65121 24.3518 4.00318L25.8333 2.33965V4.51172C25.8333 4.8675 26.1227 5.15625 26.4792 5.15625H26.4798Z" fill="black"/>
<path d="M30.3542 31.7109H29.7083V8.37891C29.7083 8.02313 29.419 7.73438 29.0625 7.73438H25.1875C24.831 7.73438 24.5417 8.02313 24.5417 8.37891V31.7109H21.9583V13.5352C21.9583 13.1794 21.669 12.8906 21.3125 12.8906H17.4375C17.081 12.8906 16.7917 13.1794 16.7917 13.5352V31.7109H14.2083V17.4023C14.2083 17.0466 13.919 16.7578 13.5625 16.7578H9.6875C9.331 16.7578 9.04167 17.0466 9.04167 17.4023V31.7109H6.45833V21.2695C6.45833 20.9138 6.169 20.625 5.8125 20.625H1.9375C1.581 20.625 1.29167 20.9138 1.29167 21.2695V31.7109H0.645833C0.289333 31.7109 0 31.9997 0 32.3555C0 32.7112 0.289333 33 0.645833 33H30.3542C30.7107 33 31 32.7112 31 32.3555C31 31.9997 30.7107 31.7109 30.3542 31.7109ZM25.8333 9.02344H28.4167V31.7109H25.8333V9.02344ZM18.0833 14.1797H20.6667V31.7109H18.0833V14.1797ZM10.3333 18.0469H12.9167V31.7109H10.3333V18.0469ZM2.58333 21.9141H5.16667V31.7109H2.58333V21.9141Z" fill="black"/>
</g>
<defs>
<clipPath id="clip0_654_1449">
<rect width="31" height="33" fill="white"/>
</clipPath>
</defs>
</svg>
